<?xml version="1.0" encoding="UTF-8" standalone="no"?>
<!DOCTYPE svg PUBLIC "-//W3C//DTD SVG 1.1//EN" "http://www.w3.org/Graphics/SVG/1.1/DTD/svg11.dtd">
<svg width="100%" height="100%" viewBox="0 0 1600 1200" version="1.1" xmlns="http://www.w3.org/2000/svg" xmlns:xlink="http://www.w3.org/1999/xlink" xml:space="preserve" xmlns:serif="http://www.serif.com/" style="fill-rule:evenodd;clip-rule:evenodd;stroke-miterlimit:10;">
    <g transform="matrix(1,0,0,1,17,35.205)">
        <path d="M1311.69,1042.05L1396.47,738.5C1400.07,725.6 1398.2,711.39 1391.47,700.5L1191.47,265.5C1185.01,255.05 1174.86,248.9 1164.08,248.9L515.47,155C505.47,155 496.01,160.27 489.47,169.43L214.27,606.43C205.72,618.49 203.63,635.43 208.89,649.96L350.67,1041.96L1311.69,1042.05Z" style="fill:rgb(244,244,244);fill-rule:nonzero;"/>
    </g>
    <g transform="matrix(1,0,0,1,-336.77,71.18)">
        <path d="M1235.74,664.52L1286.87,685.1C1288.05,685.644 1289.02,686.571 1289.61,687.73C1290.2,688.89 1290.38,690.215 1290.12,691.49L1260.43,839.49L1207,839.49L1235.74,664.52Z" style="fill:rgb(134,138,145);fill-rule:nonzero;"/>
    </g>
    <g transform="matrix(1,0,0,1,-336.77,71.18)">
        <path d="M1240.69,671.44L1207,839.53L1054,839.53L1088.17,669.16C1088.43,667.85 1089.14,666.671 1090.17,665.825C1091.21,664.978 1092.5,664.517 1093.84,664.52L1235,664.52C1235.86,664.517 1236.71,664.704 1237.48,665.069C1238.26,665.434 1238.94,665.967 1239.49,666.629C1240.03,667.292 1240.42,668.067 1240.63,668.899C1240.84,669.731 1240.86,670.599 1240.69,671.44Z" style="fill:rgb(178,182,187);fill-rule:nonzero;"/>
    </g>
    <g transform="matrix(1,0,0,1,-336.77,71.18)">
        <path d="M1014.66,925.79L1037.04,925.79L1070.39,757.7L1010.77,757.8L1014.66,925.79Z" style="fill:rgb(134,138,145);fill-rule:nonzero;"/>
    </g>
    <g transform="matrix(1,0,0,1,-336.77,71.18)">
        <path d="M1014.66,925.79L969.66,925.79L969.66,763.48C969.66,761.947 970.269,760.477 971.353,759.393C972.437,758.309 973.907,757.7 975.44,757.7L1008.89,757.7C1010.42,757.7 1011.89,758.309 1012.98,759.393C1014.06,760.477 1014.67,761.947 1014.67,763.48L1014.66,925.79Z" style="fill:rgb(178,182,187);fill-rule:nonzero;"/>
    </g>
    <g transform="matrix(1,0,0,1,-336.77,71.18)">
        <rect x="1014.66" y="839.53" width="174.74" height="86.26" style="fill:rgb(178,182,187);fill-rule:nonzero;"/>
    </g>
    <g transform="matrix(1,0,0,1,-336.77,71.18)">
        <rect x="1014.66" y="802.24" width="174.74" height="37.64" style="fill:rgb(178,182,187);fill-rule:nonzero;"/>
    </g>
    <g transform="matrix(1,0,0,1,-336.77,71.18)">
        <path d="M1221.54,925.79L1220.43,939.4L1217.84,970.87L1205.98,970.87L1203.39,939.4L1202.29,925.79L1221.54,925.79Z" style="fill:rgb(134,138,145);fill-rule:nonzero;"/>
    </g>
    <g transform="matrix(1,0,0,1,-336.77,71.18)">
        <g opacity="0.2">
            <path d="M1221.54,925.79L1202.29,925.79L1203.39,939.4L1220.43,939.4L1221.54,925.79Z" style="fill-opacity:0.2;fill-rule:nonzero;"/>
        </g>
    </g>
    <g transform="matrix(1,0,0,1,-336.77,71.18)">
        <path d="M1084,925.79L1082.89,939.4L1080.3,970.87L1068.44,970.87L1065.86,939.4L1064.75,925.79L1084,925.79Z" style="fill:rgb(134,138,145);fill-rule:nonzero;"/>
    </g>
    <g transform="matrix(1,0,0,1,-336.77,71.18)">
        <g opacity="0.2">
            <path d="M1084,925.79L1064.75,925.79L1065.86,939.4L1082.89,939.4L1084,925.79Z" style="fill-opacity:0.2;fill-rule:nonzero;"/>
        </g>
    </g>
    <g transform="matrix(1,0,0,1,-336.77,71.18)">
        <path d="M1001.06,925.79L999.95,939.4L997.36,970.87L985.5,970.87L982.91,939.4L981.81,925.79L1001.06,925.79Z" style="fill:rgb(134,138,145);fill-rule:nonzero;"/>
    </g>
    <g transform="matrix(1,0,0,1,-336.77,71.18)">
        <g opacity="0.2">
            <path d="M981.81,925.79L982.91,939.4L999.95,939.4L1001.06,925.79L981.81,925.79Z" style="fill-opacity:0.2;fill-rule:nonzero;"/>
        </g>
    </g>
    <g transform="matrix(1,0,0,1,-336.77,71.18)">
        <path d="M1014.66,920.46C1014.71,920.46 1014.76,920.45 1014.81,920.429C1014.86,920.409 1014.9,920.38 1014.94,920.342C1014.98,920.305 1015,920.261 1015.02,920.212C1015.04,920.164 1015.05,920.112 1015.05,920.06L1015.05,758.06C1015.05,758.009 1015.04,757.958 1015.02,757.911C1015,757.863 1014.97,757.82 1014.94,757.784C1014.9,757.748 1014.86,757.719 1014.81,757.7C1014.76,757.68 1014.71,757.67 1014.66,757.67C1014.61,757.67 1014.56,757.68 1014.51,757.7C1014.46,757.719 1014.42,757.748 1014.38,757.784C1014.35,757.82 1014.32,757.863 1014.3,757.911C1014.28,757.958 1014.27,758.009 1014.27,758.06L1014.27,920.06C1014.27,920.112 1014.28,920.164 1014.3,920.212C1014.32,920.261 1014.34,920.305 1014.38,920.342C1014.42,920.38 1014.46,920.409 1014.51,920.429C1014.56,920.45 1014.61,920.46 1014.66,920.46Z" style="fill:rgb(134,138,145);fill-rule:nonzero;"/>
    </g>
    <g transform="matrix(1,0,0,1,-336.77,71.18)">
        <path d="M1017.48,802.63L1183.48,802.63C1183.58,802.63 1183.68,802.589 1183.76,802.516C1183.83,802.443 1183.87,802.344 1183.87,802.24C1183.87,802.137 1183.83,802.037 1183.76,801.964C1183.68,801.891 1183.58,801.85 1183.48,801.85L1017.48,801.85C1017.38,801.85 1017.28,801.891 1017.2,801.964C1017.13,802.037 1017.09,802.137 1017.09,802.24C1017.09,802.344 1017.13,802.443 1017.2,802.516C1017.28,802.589 1017.38,802.63 1017.48,802.63Z" style="fill:rgb(134,138,145);fill-rule:nonzero;"/>
    </g>
    <g transform="matrix(1,0,0,1,-336.77,71.18)">
        <path d="M1017.48,839.47L1183.48,839.47C1183.58,839.47 1183.68,839.429 1183.76,839.356C1183.83,839.283 1183.87,839.183 1183.87,839.08C1183.87,838.977 1183.83,838.877 1183.76,838.804C1183.68,838.731 1183.58,838.69 1183.48,838.69L1017.48,838.69C1017.38,838.69 1017.28,838.731 1017.2,838.804C1017.13,838.877 1017.09,838.977 1017.09,839.08C1017.09,839.183 1017.13,839.283 1017.2,839.356C1017.28,839.429 1017.38,839.47 1017.48,839.47Z" style="fill:rgb(134,138,145);fill-rule:nonzero;"/>
    </g>
    <g transform="matrix(1,0,0,1,-336.77,71.18)">
        <path d="M1234.42,925.79L1261.3,925.79L1303.88,757.71L1230.26,757.8L1234.42,925.79Z" style="fill:rgb(134,138,145);fill-rule:nonzero;"/>
    </g>
    <g transform="matrix(1,0,0,1,-336.77,71.18)">
        <path d="M1189.41,925.79L1234.41,925.79L1234.41,763.47C1234.41,762.712 1234.26,761.96 1233.97,761.26C1233.68,760.559 1233.25,759.923 1232.72,759.387C1232.18,758.851 1231.54,758.426 1230.84,758.137C1230.14,757.847 1229.39,757.699 1228.63,757.7L1195.17,757.7C1193.64,757.7 1192.17,758.308 1191.09,759.39C1190.01,760.472 1189.4,761.94 1189.4,763.47L1189.41,925.79Z" style="fill:rgb(178,182,187);fill-rule:nonzero;"/>
    </g>
    <g transform="matrix(1,0,0,1,-336.77,71.18)">
        <path d="M1188.27,920.46C1188.37,920.457 1188.47,920.416 1188.54,920.343C1188.62,920.27 1188.66,920.173 1188.66,920.07L1189.47,762.47C1189.47,761.356 1189.91,760.289 1190.7,759.495C1191.48,758.701 1192.54,758.243 1193.65,758.22L1215.33,757.76C1215.38,757.76 1215.43,757.75 1215.48,757.73C1215.53,757.711 1215.57,757.682 1215.61,757.646C1215.64,757.61 1215.67,757.567 1215.69,757.519C1215.71,757.472 1215.72,757.421 1215.72,757.37C1215.72,757.319 1215.71,757.268 1215.69,757.221C1215.67,757.173 1215.64,757.13 1215.61,757.094C1215.57,757.058 1215.53,757.029 1215.48,757.01C1215.43,756.99 1215.38,756.98 1215.33,756.98L1192.89,757.45C1191.78,757.476 1190.72,757.934 1189.94,758.728C1189.16,759.521 1188.72,760.587 1188.71,761.7L1187.9,920.06C1187.9,920.112 1187.91,920.164 1187.93,920.212C1187.95,920.261 1187.97,920.305 1188.01,920.342C1188.05,920.38 1188.09,920.409 1188.14,920.429C1188.19,920.45 1188.24,920.46 1188.29,920.46L1188.27,920.46Z" style="fill:rgb(134,138,145);fill-rule:nonzero;"/>
    </g>
    <g transform="matrix(1,0,0,1,-336.77,71.18)">
        <path d="M1177.83,828.74C1177.83,828.74 1183.83,837.74 1182.6,839.31C1181.37,840.88 1176.6,839.49 1176,839.21C1175.4,838.93 1172.84,832.98 1172.84,832.7C1172.84,832.42 1177.83,828.74 1177.83,828.74Z" style="fill:rgb(77,97,252);fill-rule:nonzero;"/>
    </g>
    <g transform="matrix(1,0,0,1,-336.77,71.18)">
        <path d="M1177.83,828.74C1177.83,828.74 1181.23,832.5 1180.02,834.09C1178.81,835.68 1177.48,839.37 1176.85,839.37C1174.74,839.37 1172.85,832.98 1172.85,832.7C1172.85,832.42 1177.83,828.74 1177.83,828.74Z" style="fill-opacity:0.3;fill-rule:nonzero;"/>
    </g>
    <g transform="matrix(1,0,0,1,-336.77,71.18)">
        <path d="M1176,839.21C1176,839.21 1179.16,859.3 1168.56,857.82C1157.96,856.34 1164.65,836.98 1168.19,831.59C1168.19,831.59 1162.61,820.59 1162.42,818.59C1159.1,821.069 1155.19,822.612 1151.07,823.06C1144.56,823.62 1135.07,820.95 1129.07,803.06C1129.07,803.06 1093.91,805.23 1090.38,804.86C1090.73,806.038 1090.78,807.285 1090.52,808.486C1090.25,809.687 1089.7,810.802 1088.89,811.73C1086.1,815.27 1078.66,828.3 1077.54,831.09C1076.42,833.88 1081.45,845.41 1078.66,847.27C1075.87,849.13 1066.56,845.59 1066.01,836.01C1065.46,826.43 1075.68,810.25 1075.49,807.83C1075.3,805.41 1068.94,802.12 1068.94,802.12L1033.26,802.69C1033.26,802.69 1025.26,796.03 1028.61,790.86C1031.96,785.69 1034.61,777.14 1041.26,776.95L1042.47,776.95L1042.47,765.58C1042.47,765.58 1049.91,770.3 1051.03,773.52C1052.49,770.711 1054.19,768.035 1056.11,765.52C1056.11,765.52 1061.82,767.99 1066.04,778.52C1068.85,778.204 1071.62,777.532 1074.26,776.52C1078.5,774.85 1082.72,778.38 1088.05,777.27C1093.38,776.16 1118.31,775.98 1125.38,776.07C1132.45,776.16 1152.97,774.73 1163.52,781.73C1172.72,787.85 1183.73,802.4 1180.88,817.88C1180.9,817.69 1176.56,831.21 1176,839.21Z" style="fill:rgb(10,77,166);fill-rule:nonzero;"/>
    </g>
    <g transform="matrix(1,0,0,1,-336.77,71.18)">
        <path d="M1029,791.37C1029,791.37 1042.64,792.99 1037.32,802.68L1033.32,802.68C1033.32,802.68 1025.2,795.52 1029,791.37Z" style="fill:rgb(195,197,200);fill-rule:nonzero;"/>
    </g>
    <g transform="matrix(1,0,0,1,-336.77,71.18)">
        <path d="M1133.41,812.49C1133.41,812.49 1136.2,808.02 1137.68,810.49C1137.68,810.49 1141.33,810.49 1140.35,812.73C1140.35,812.73 1140.45,816.81 1138.08,818.73L1133.41,812.49Z" style="fill-opacity:0.3;fill-rule:nonzero;"/>
    </g>
    <g transform="matrix(1,0,0,1,-336.77,71.18)">
        <path d="M1064.72,796.64C1064.72,796.64 1067.51,792.17 1068.99,794.58C1068.99,794.58 1072.64,794.58 1071.66,796.83C1071.66,796.83 1071.76,800.9 1069.39,802.83L1064.72,796.64Z" style="fill-opacity:0.3;fill-rule:nonzero;"/>
    </g>
    <g transform="matrix(1,0,0,1,-336.77,71.18)">
        <path d="M1157.58,793.27C1159.58,795.02 1161.5,796.82 1163.33,798.7C1165.2,800.55 1166.92,802.539 1168.48,804.65C1168.84,805.179 1169.17,805.727 1169.48,806.29C1169.63,806.57 1169.82,806.84 1169.94,807.13L1170.33,808.01C1170.72,809.233 1170.95,810.505 1170.99,811.79C1171.05,812.44 1170.99,813.09 1171.06,813.79C1171.13,814.49 1171.06,815.1 1171.06,815.79C1171.06,816.48 1171,817.1 1170.94,817.79C1170.88,818.48 1170.81,819.1 1170.74,819.79C1170.47,822.395 1169.99,824.974 1169.3,827.5C1168.95,828.696 1168.52,829.866 1168,831L1167.59,831.87C1167.43,832.16 1167.28,832.46 1167.13,832.76C1166.84,833.347 1166.56,833.947 1166.29,834.56C1165.18,836.973 1164.27,839.467 1163.54,842.02C1163.2,843.304 1162.94,844.611 1162.78,845.93C1162.6,847.257 1162.6,848.603 1162.78,849.93C1162.69,848.616 1162.77,847.296 1163,846C1163.22,844.704 1163.54,843.425 1163.93,842.17C1164.73,839.666 1165.71,837.226 1166.87,834.87C1167.16,834.28 1167.45,833.69 1167.76,833.11L1168.22,832.24L1168.67,831.33C1169.2,830.104 1169.65,828.845 1170.01,827.56C1170.73,824.996 1171.24,822.377 1171.54,819.73C1171.61,819.07 1171.68,818.41 1171.72,817.73C1171.76,817.05 1171.81,816.4 1171.83,815.73C1171.85,815.06 1171.83,814.4 1171.83,813.73C1171.83,813.06 1171.83,812.39 1171.74,811.73C1171.68,810.369 1171.43,809.023 1171,807.73C1170.46,806.489 1169.77,805.32 1168.94,804.25C1165.61,800.144 1161.8,796.457 1157.58,793.27Z" style="fill-opacity:0.3;fill-rule:nonzero;"/>
    </g>
    <g transform="matrix(1,0,0,1,-336.77,71.18)">
        <path d="M1126.52,796.51C1128.05,800.51 1129.61,804.51 1131.2,808.51C1131.98,810.532 1132.99,812.461 1134.2,814.26C1135.41,816.074 1136.84,817.724 1138.47,819.17C1140.12,820.625 1142.01,821.768 1144.07,822.54C1146.14,823.28 1148.35,823.577 1150.54,823.41C1152.71,823.222 1154.83,822.682 1156.83,821.81C1158.8,820.938 1160.67,819.858 1162.41,818.59C1161.48,819.13 1160.56,819.67 1159.6,820.14C1158.65,820.616 1157.67,821.04 1156.67,821.41C1154.69,822.164 1152.61,822.61 1150.5,822.73C1148.4,822.821 1146.31,822.481 1144.35,821.73C1142.39,820.978 1140.58,819.881 1139.01,818.49C1137.43,817.094 1136.03,815.513 1134.83,813.78C1133.61,812.044 1132.58,810.187 1131.74,808.24C1130.04,804.326 1128.3,800.416 1126.52,796.51Z" style="fill-opacity:0.3;fill-rule:nonzero;"/>
    </g>
    <g transform="matrix(1,0,0,1,-336.77,71.18)">
        <path d="M1086.05,792.89C1086.62,794.94 1087.26,796.95 1087.93,798.96C1088.6,800.97 1089.31,802.96 1090.03,804.96C1090.08,805.046 1090.12,805.136 1090.15,805.23C1090.19,805.344 1090.22,805.461 1090.24,805.58C1090.29,805.823 1090.32,806.071 1090.32,806.32C1090.32,806.838 1090.27,807.355 1090.15,807.86C1089.92,808.899 1089.56,809.907 1089.08,810.86C1088.09,812.806 1086.95,814.668 1085.66,816.43C1086.43,815.639 1087.16,814.804 1087.83,813.93C1088.51,813.057 1089.13,812.131 1089.66,811.16C1090.22,810.176 1090.64,809.124 1090.93,808.03C1091.07,807.467 1091.14,806.89 1091.14,806.31C1091.14,806.012 1091.11,805.714 1091.06,805.42C1091.03,805.268 1090.99,805.117 1090.94,804.97C1090.88,804.803 1090.81,804.642 1090.72,804.49L1090.72,804.58C1089.98,802.58 1089.24,800.58 1088.45,798.66C1087.66,796.74 1087,794.82 1086.05,792.89Z" style="fill-opacity:0.3;fill-rule:nonzero;"/>
    </g>
    <g transform="matrix(1,0,0,1,-336.77,71.18)">
        <path d="M1031.06,791.21C1031.17,791.231 1031.26,791.279 1031.34,791.35C1031.42,791.42 1031.48,791.511 1031.52,791.612C1031.55,791.714 1031.56,791.822 1031.54,791.927C1031.52,792.032 1031.47,792.13 1031.4,792.21C1030.4,793.3 1028.64,795.02 1027.95,794.48C1027.69,793.202 1027.94,791.871 1028.66,790.78L1031.06,791.21Z" style="fill-rule:nonzero;"/>
    </g>
    <g transform="matrix(1,0,0,1,-336.77,71.18)">
        <path d="M1046.65,788.22C1046.09,788.078 1045.52,787.981 1044.95,787.93C1043.88,787.834 1042.8,788.053 1041.85,788.56L1041.67,788.65L1041.13,788.98C1040.88,789.13 1040.66,789.32 1040.39,789.47C1040.52,789.196 1040.67,788.935 1040.85,788.69C1041.42,787.926 1042.25,787.4 1043.19,787.21C1043.82,787.081 1044.47,787.108 1045.08,787.29C1045.67,787.461 1046.21,787.781 1046.65,788.22Z" style="fill-rule:nonzero;"/>
    </g>
    <g transform="matrix(1,0,0,1,-336.77,71.18)">
        <path d="M1126.52,796.51C1126.52,796.51 1104.66,793.69 1089.83,802.03L1090.83,804.65L1129.13,803L1126.52,796.51Z" style="fill:rgb(195,197,200);fill-rule:nonzero;"/>
    </g>
    <g transform="matrix(1,0,0,1,-336.77,71.18)">
        <path d="M1042.52,776.85L1042.52,765.48C1042.52,765.48 1049.96,770.2 1051.08,773.42L1048.79,777.42L1042.52,776.85Z" style="fill-opacity:0.4;fill-rule:nonzero;"/>
    </g>
    <g transform="matrix(1,0,0,1,-336.77,71.18)">
        <path d="M1055.89,767.47L1049.89,777.47C1051.81,778.178 1053.84,778.518 1055.89,778.47C1055.89,778.47 1057.93,775.16 1055.89,767.47Z" style="fill:white;fill-opacity:0.4;fill-rule:nonzero;"/>
    </g>
    <g transform="matrix(1,0,0,1,-336.77,71.18)">
        <path d="M1170,807.13C1170,807.13 1169.24,817.67 1165.65,826.41L1168,831C1168,831 1173.7,814 1170,807.13Z" style="fill-opacity:0.3;fill-rule:nonzero;"/>
    </g>
    <g transform="matrix(1,0,0,1,-336.77,71.18)">
        <path d="M1087.64,796.51C1087.64,796.51 1090.01,803.37 1102.01,804.37L1091.01,805.04L1087.64,796.51Z" style="fill-opacity:0.3;fill-rule:nonzero;"/>
    </g>
    <g transform="matrix(1,0,0,1,-336.77,71.18)">
        <path d="M1126,794.37C1126,794.37 1125,802.37 1119,803.37L1129.11,803L1126,794.37Z" style="fill-opacity:0.3;fill-rule:nonzero;"/>
    </g>
    <g transform="matrix(1,0,0,1,-336.77,71.18)">
        <path d="M1069,802.06L1063,794.37C1063,794.37 1063.19,800.52 1058,802.37L1069,802.06Z" style="fill-opacity:0.3;fill-rule:nonzero;"/>
    </g>
    <g transform="matrix(1,0,0,1,-336.77,71.18)">
        <path d="M1130.81,775.83C1130.81,775.83 1134.23,780.75 1129.12,780.47C1129.12,780.47 1125.12,783.36 1122.96,781.25C1122.96,781.25 1116.96,778.87 1116.79,775.83L1130.81,775.83Z" style="fill-opacity:0.3;fill-rule:nonzero;"/>
    </g>
    <g transform="matrix(1,0,0,1,-336.77,71.18)">
        <path d="M1097.34,791.77C1100.72,790.82 1104.58,792.82 1103.25,794.93C1102.64,795.731 1101.77,796.291 1100.79,796.51C1096.18,797.94 1088.69,794.19 1097.34,791.77Z" style="fill-opacity:0.3;fill-rule:nonzero;"/>
    </g>
    <g transform="matrix(1,0,0,1,-336.77,71.18)">
        <path d="M1075.54,775.91C1078.35,774.97 1081.54,776.97 1080.46,779.08C1080.01,779.835 1079.3,780.397 1078.46,780.66C1074.57,782.09 1068.34,778.33 1075.54,775.91Z" style="fill-opacity:0.3;fill-rule:nonzero;"/>
    </g>
    <g transform="matrix(1,0,0,1,-336.77,71.18)">
        <path d="M1160.62,796C1160.62,796 1164.27,792.53 1168.45,798C1168.45,798 1172.26,802.79 1167.16,802L1160.62,796Z" style="fill-opacity:0.3;fill-rule:nonzero;"/>
    </g>
    <g transform="matrix(1,0,0,1,-336.77,71.18)">
        <path d="M1178.05,829.14C1178.05,829.14 1173.22,827.73 1175.81,821.39C1175.81,821.39 1178.04,815.68 1179.96,820.46L1178.05,829.14Z" style="fill-opacity:0.3;fill-rule:nonzero;"/>
    </g>
    <g transform="matrix(1,0,0,1,-336.77,71.18)">
        <path d="M1176.2,849.52C1176.2,849.52 1158.96,845.96 1164.73,855.88C1164.73,855.88 1173,864.32 1176.2,849.52Z" style="fill-opacity:0.3;fill-rule:nonzero;"/>
    </g>
    <g transform="matrix(1,0,0,1,-336.77,71.18)">
        <path d="M1069,823.16C1069,823.16 1077.65,824.68 1067.55,836.25L1066.07,835.95C1065.99,831.512 1067,827.123 1069,823.16Z" style="fill-opacity:0.3;fill-rule:nonzero;"/>
    </g>
    <g transform="matrix(1,0,0,1,-336.77,71.18)">
        <path d="M1060.58,802.2L1064.63,802.13C1068.84,794.781 1070.46,786.231 1069.24,777.85C1068.19,778.085 1067.13,778.261 1066.06,778.38C1066.06,778.38 1068.21,793.43 1060.58,802.2Z" style="fill-rule:nonzero;"/>
    </g>
    <path d="M1407.17,1045.88L250.88,1045.88C250.15,1045.88 249.56,1045.08 249.56,1044.09C249.56,1043.1 250.15,1042.3 250.88,1042.3L1407.17,1042.3C1407.9,1042.3 1408.49,1043.1 1408.49,1044.09C1408.49,1045.08 1407.9,1045.88 1407.17,1045.88Z" style="fill:rgb(178,182,187);fill-rule:nonzero;"/>
    <path d="M540.11,779.471L365.12,779.471C362.911,779.471 361.12,781.262 361.12,783.471L361.12,1037.43C361.12,1039.64 362.911,1041.43 365.12,1041.43L540.11,1041.43C542.319,1041.43 544.11,1039.64 544.11,1037.43L544.11,783.471C544.11,781.262 542.319,779.471 540.11,779.471Z" style="fill:rgb(97,101,109);fill-rule:nonzero;"/>
    <path d="M540.12,779.471L410.87,779.471C408.661,779.471 406.87,781.262 406.87,783.471L406.87,1037.43C406.87,1039.64 408.661,1041.43 410.87,1041.43L540.12,1041.43C542.329,1041.43 544.12,1039.64 544.12,1037.43L544.12,783.471C544.12,781.262 542.329,779.471 540.12,779.471Z" style="fill:rgb(178,182,187);fill-rule:nonzero;"/>
    <path d="M540.12,779.471L410.87,779.471C408.661,779.471 406.87,781.262 406.87,783.471L406.87,1037.43C406.87,1039.64 408.661,1041.43 410.87,1041.43L540.12,1041.43C542.329,1041.43 544.12,1039.64 544.12,1037.43L544.12,783.471C544.12,781.262 542.329,779.471 540.12,779.471Z" style="fill-opacity:0.08;fill-rule:nonzero;"/>
    <path d="M512.761,841.06C516.09,820.552 502.163,801.227 481.655,797.898C461.146,794.569 441.822,808.496 438.493,829.005C435.164,849.513 449.091,868.837 469.6,872.166C490.108,875.495 509.432,861.569 512.761,841.06Z" style="fill:rgb(97,97,97);fill-rule:nonzero;"/>
    <path d="M475.61,797.369C474.021,797.381 472.434,797.495 470.86,797.709C489.39,800.039 508.45,811.659 508.51,834.989C508.57,858.319 489.39,869.989 470.86,872.279C472.435,872.485 474.021,872.596 475.61,872.609C480.55,872.609 485.442,871.636 490.007,869.745C494.571,867.855 498.718,865.084 502.211,861.591C505.705,858.097 508.476,853.95 510.366,849.386C512.257,844.821 513.23,839.929 513.23,834.989C513.23,830.049 512.257,825.157 510.366,820.593C508.476,816.028 505.705,811.881 502.211,808.388C498.718,804.894 494.571,802.123 490.007,800.233C485.442,798.342 480.55,797.369 475.61,797.369Z" style="fill-opacity:0.2;fill-rule:nonzero;"/>
    <path d="M475.61,995.5C506.08,995.5 530.78,970.8 530.78,940.33C530.78,909.861 506.08,885.16 475.61,885.16C445.14,885.16 420.44,909.861 420.44,940.33C420.44,970.8 445.14,995.5 475.61,995.5Z" style="fill:rgb(97,97,97);fill-rule:nonzero;"/>
    <path d="M475.61,885.15C473.75,885.15 471.92,885.25 470.11,885.43C483.721,886.794 496.34,893.167 505.518,903.31C514.696,913.454 519.778,926.646 519.778,940.325C519.778,954.005 514.696,967.197 505.518,977.34C496.34,987.484 483.721,993.856 470.11,995.22C471.92,995.4 473.75,995.5 475.61,995.5C490.115,995.305 503.959,989.406 514.147,979.08C524.335,968.754 530.047,954.831 530.047,940.325C530.047,925.819 524.335,911.897 514.147,901.571C503.959,891.245 490.115,885.346 475.61,885.15Z" style="fill-opacity:0.2;fill-rule:nonzero;"/>
    <path d="M475.61,969.209C491.56,969.209 504.49,956.279 504.49,940.329C504.49,924.379 491.56,911.449 475.61,911.449C459.66,911.449 446.73,924.379 446.73,940.329C446.73,956.279 459.66,969.209 475.61,969.209Z" style="fill-opacity:0.2;fill-rule:nonzero;"/>
    <path d="M475.61,911.449C474.61,911.449 473.68,911.449 472.73,911.589C479.846,912.317 486.439,915.659 491.232,920.968C496.026,926.277 498.68,933.176 498.68,940.329C498.68,947.482 496.026,954.381 491.232,959.69C486.439,964.999 479.846,968.341 472.73,969.069C473.68,969.159 474.64,969.209 475.61,969.209C483.269,969.209 490.615,966.166 496.031,960.75C501.447,955.334 504.49,947.989 504.49,940.329C504.49,932.67 501.447,925.324 496.031,919.908C490.615,914.492 483.269,911.449 475.61,911.449Z" style="fill-opacity:0.2;fill-rule:nonzero;"/>
    <path d="M475.61,856.31C487.385,856.31 496.93,846.765 496.93,834.99C496.93,823.215 487.385,813.67 475.61,813.67C463.835,813.67 454.29,823.215 454.29,834.99C454.29,846.765 463.835,856.31 475.61,856.31Z" style="fill-opacity:0.2;fill-rule:nonzero;"/>
    <path d="M475.61,813.67C474.89,813.67 474.18,813.67 473.48,813.78C478.743,814.304 483.622,816.766 487.172,820.686C490.721,824.607 492.687,829.706 492.687,834.995C492.687,840.283 490.721,845.383 487.172,849.304C483.622,853.224 478.743,855.686 473.48,856.21C474.18,856.27 474.89,856.31 475.61,856.31C481.264,856.31 486.687,854.064 490.686,850.065C494.684,846.067 496.93,840.644 496.93,834.99C496.93,829.336 494.684,823.913 490.686,819.914C486.687,815.916 481.264,813.67 475.61,813.67Z" style="fill-opacity:0.2;fill-rule:nonzero;"/>
    <path d="M1103.93,1041.43L1278.92,1041.43C1281.13,1041.43 1282.92,1039.64 1282.92,1037.43L1282.92,783.47C1282.92,781.26 1281.13,779.47 1278.92,779.47L1103.93,779.47C1101.72,779.47 1099.93,781.26 1099.93,783.47L1099.93,1037.43C1099.93,1039.64 1101.72,1041.43 1103.93,1041.43Z" style="fill:rgb(97,101,109);fill-rule:nonzero;"/>
    <path d="M1103.92,1041.43L1233.17,1041.43C1235.38,1041.43 1237.17,1039.64 1237.17,1037.43L1237.17,783.47C1237.17,781.26 1235.38,779.47 1233.17,779.47L1103.92,779.47C1101.71,779.47 1099.92,781.26 1099.92,783.47L1099.92,1037.43C1099.92,1039.64 1101.71,1041.43 1103.92,1041.43Z" style="fill:rgb(178,182,187);fill-rule:nonzero;"/>
    <path d="M1103.92,1041.43L1233.17,1041.43C1235.38,1041.43 1237.17,1039.64 1237.17,1037.43L1237.17,783.47C1237.17,781.26 1235.38,779.47 1233.17,779.47L1103.92,779.47C1101.71,779.47 1099.92,781.26 1099.92,783.47L1099.92,1037.43C1099.92,1039.64 1101.71,1041.43 1103.92,1041.43Z" style="fill-opacity:0.08;fill-rule:nonzero;"/>
    <path d="M1174.49,872.064C1195,868.735 1208.92,849.411 1205.6,828.903C1202.27,808.394 1182.94,794.468 1162.43,797.797C1141.93,801.126 1128,820.45 1131.33,840.958C1134.66,861.467 1153.98,875.393 1174.49,872.064Z" style="fill:rgb(97,97,97);fill-rule:nonzero;"/>
    <path d="M1168.43,797.369C1170.02,797.381 1171.6,797.494 1173.17,797.709C1154.65,800.039 1135.58,811.659 1135.53,834.989C1135.48,858.319 1154.65,869.989 1173.17,872.279C1171.6,872.486 1170.02,872.596 1168.43,872.609C1158.45,872.609 1148.88,868.646 1141.83,861.591C1134.77,854.535 1130.81,844.967 1130.81,834.989C1130.81,825.012 1134.77,815.443 1141.83,808.388C1148.88,801.333 1158.45,797.369 1168.43,797.369Z" style="fill-opacity:0.2;fill-rule:nonzero;"/>
    <path d="M1168.43,995.5C1198.9,995.5 1223.6,970.8 1223.6,940.33C1223.6,909.861 1198.9,885.16 1168.43,885.16C1137.96,885.16 1113.26,909.861 1113.26,940.33C1113.26,970.8 1137.96,995.5 1168.43,995.5Z" style="fill:rgb(97,97,97);fill-rule:nonzero;"/>
    <path d="M1168.43,885.15C1170.28,885.15 1172.12,885.25 1173.93,885.43C1160.32,886.794 1147.7,893.166 1138.52,903.31C1129.34,913.453 1124.26,926.645 1124.26,940.325C1124.26,954.004 1129.34,967.196 1138.52,977.339C1147.7,987.483 1160.32,993.855 1173.93,995.219C1172.12,995.399 1170.28,995.5 1168.43,995.5C1161.12,995.598 1153.87,994.243 1147.09,991.515C1140.31,988.786 1134.14,984.738 1128.93,979.604C1123.73,974.471 1119.6,968.355 1116.78,961.612C1113.96,954.869 1112.51,947.633 1112.51,940.325C1112.51,933.016 1113.96,925.78 1116.78,919.037C1119.6,912.294 1123.73,906.178 1128.93,901.045C1134.14,895.911 1140.31,891.863 1147.09,889.134C1153.87,886.406 1161.12,885.051 1168.43,885.15Z" style="fill-opacity:0.2;fill-rule:nonzero;"/>
    <path d="M1168.43,969.209C1184.38,969.209 1197.31,956.279 1197.31,940.329C1197.31,924.379 1184.38,911.449 1168.43,911.449C1152.48,911.449 1139.55,924.379 1139.55,940.329C1139.55,956.279 1152.48,969.209 1168.43,969.209Z" style="fill-opacity:0.2;fill-rule:nonzero;"/>
    <path d="M1168.43,911.449C1169.43,911.449 1170.36,911.449 1171.31,911.589C1164.18,912.294 1157.56,915.626 1152.75,920.938C1147.94,926.25 1145.27,933.161 1145.27,940.329C1145.27,947.497 1147.94,954.409 1152.75,959.72C1157.56,965.032 1164.18,968.364 1171.31,969.069C1170.31,969.159 1169.4,969.209 1168.43,969.209C1160.77,969.209 1153.42,966.166 1148.01,960.75C1142.59,955.334 1139.55,947.989 1139.55,940.329C1139.55,932.67 1142.59,925.324 1148.01,919.908C1153.42,914.492 1160.77,911.449 1168.43,911.449Z" style="fill-opacity:0.2;fill-rule:nonzero;"/>
    <path d="M1168.43,856.31C1180.2,856.31 1189.75,846.765 1189.75,834.99C1189.75,823.215 1180.2,813.67 1168.43,813.67C1156.66,813.67 1147.11,823.215 1147.11,834.99C1147.11,846.765 1156.66,856.31 1168.43,856.31Z" style="fill-opacity:0.2;fill-rule:nonzero;"/>
    <path d="M1168.43,813.67C1169.15,813.67 1169.86,813.67 1170.56,813.78C1165.3,814.304 1160.42,816.766 1156.87,820.686C1153.32,824.607 1151.35,829.706 1151.35,834.995C1151.35,840.283 1153.32,845.383 1156.87,849.304C1160.42,853.224 1165.3,855.686 1170.56,856.21C1169.86,856.27 1169.15,856.31 1168.43,856.31C1162.78,856.31 1157.35,854.064 1153.35,850.065C1149.36,846.067 1147.11,840.644 1147.11,834.99C1147.11,829.336 1149.36,823.913 1153.35,819.914C1157.35,815.916 1162.78,813.67 1168.43,813.67Z" style="fill-opacity:0.2;fill-rule:nonzero;"/>
    <path d="M1044.91,796.101L1044.91,783.731L1029.49,787.421L1029.49,799.701C1029.53,800.345 1029.5,800.991 1029.42,801.631C1029.31,802.319 1029.01,802.962 1028.56,803.491C1028.1,804.02 1027.51,804.415 1026.85,804.631C1026.25,804.895 1025.61,805.037 1024.96,805.047C1024.3,805.057 1023.66,804.936 1023.05,804.691C1022.53,804.467 1022.07,804.11 1021.73,803.655C1021.38,803.2 1021.16,802.663 1021.09,802.097C1021.02,801.531 1021.1,800.957 1021.32,800.431C1021.54,799.906 1021.9,799.447 1022.35,799.101C1023.15,798.431 1024.12,797.989 1025.15,797.821C1025.66,797.729 1026.18,797.748 1026.68,797.876C1027.17,798.003 1027.64,798.237 1028.04,798.561L1028.28,798.741L1028.35,798.741L1028.35,778.851L1046.06,775.211L1046.06,797.661C1046.12,798.411 1045.98,799.164 1045.65,799.838C1045.31,800.511 1044.8,801.08 1044.16,801.481C1043.46,801.968 1042.64,802.257 1041.79,802.319C1040.94,802.381 1040.08,802.212 1039.32,801.831C1038.84,801.596 1038.43,801.244 1038.12,800.808C1037.81,800.372 1037.62,799.866 1037.56,799.335C1037.49,798.805 1037.57,798.267 1037.77,797.772C1037.97,797.277 1038.29,796.84 1038.7,796.501C1039.24,795.965 1039.9,795.558 1040.62,795.31C1041.34,795.063 1042.1,794.981 1042.86,795.071C1043.5,795.163 1044.1,795.43 1044.59,795.841L1044.91,796.101ZM1044.91,779.921L1029.53,783.651L1029.53,785.741L1044.91,782.041L1044.91,779.921Z" style="fill:rgb(33,37,43);fill-rule:nonzero;"/>
    <path d="M481.81,681.749L481.81,669.369L466.39,673.069L466.39,685.379C466.419,686.024 466.392,686.67 466.31,687.309C466.202,687.999 465.905,688.644 465.451,689.174C464.997,689.704 464.404,690.097 463.74,690.309C463.144,690.576 462.499,690.719 461.846,690.73C461.193,690.74 460.544,690.617 459.94,690.369C459.418,690.144 458.965,689.786 458.624,689.331C458.283,688.877 458.067,688.341 457.998,687.777C457.928,687.213 458.007,686.641 458.227,686.117C458.446,685.593 458.799,685.135 459.25,684.789C460.051,684.118 461.018,683.676 462.05,683.509C462.557,683.416 463.077,683.433 463.576,683.561C464.076,683.689 464.541,683.924 464.94,684.249L465.18,684.419L465.25,684.419L465.25,664.499L482.95,660.859L482.95,683.309C483.024,684.059 482.885,684.814 482.549,685.488C482.213,686.162 481.693,686.728 481.05,687.119C480.351,687.607 479.533,687.896 478.683,687.958C477.833,688.019 476.982,687.851 476.22,687.469C475.742,687.233 475.33,686.882 475.022,686.446C474.715,686.011 474.521,685.505 474.458,684.975C474.396,684.446 474.466,683.909 474.664,683.414C474.862,682.918 475.18,682.48 475.59,682.139C476.133,681.604 476.79,681.197 477.512,680.95C478.234,680.702 479.002,680.62 479.76,680.709C480.394,680.805 480.99,681.075 481.48,681.489L481.81,681.749ZM481.81,665.569L466.42,669.289L466.42,671.389L481.81,667.689L481.81,665.569Z" style="fill:rgb(33,37,43);fill-rule:nonzero;"/>
    <path d="M1048.81,362.749L1048.81,350.369L1033.39,354.069L1033.39,366.379C1033.42,367.024 1033.39,367.67 1033.31,368.309C1033.2,368.999 1032.9,369.644 1032.45,370.174C1032,370.704 1031.4,371.097 1030.74,371.309C1030.14,371.576 1029.5,371.719 1028.85,371.73C1028.19,371.74 1027.54,371.617 1026.94,371.369C1026.42,371.144 1025.96,370.786 1025.62,370.331C1025.28,369.877 1025.07,369.341 1025,368.777C1024.93,368.213 1025.01,367.641 1025.23,367.117C1025.45,366.593 1025.8,366.135 1026.25,365.789C1027.05,365.118 1028.02,364.676 1029.05,364.509C1029.56,364.416 1030.08,364.433 1030.58,364.561C1031.08,364.689 1031.54,364.924 1031.94,365.249L1032.18,365.419L1032.25,365.419L1032.25,345.499L1049.95,341.859L1049.95,364.309C1050.02,365.059 1049.89,365.814 1049.55,366.488C1049.21,367.162 1048.69,367.728 1048.05,368.119C1047.35,368.607 1046.53,368.896 1045.68,368.958C1044.83,369.019 1043.98,368.851 1043.22,368.469C1042.74,368.233 1042.33,367.882 1042.02,367.446C1041.71,367.011 1041.52,366.505 1041.46,365.975C1041.4,365.446 1041.47,364.909 1041.66,364.414C1041.86,363.918 1042.18,363.48 1042.59,363.139C1043.13,362.604 1043.79,362.197 1044.51,361.95C1045.23,361.702 1046,361.62 1046.76,361.709C1047.39,361.805 1047.99,362.075 1048.48,362.489L1048.81,362.749ZM1048.81,346.569L1033.42,350.289L1033.42,352.389L1048.81,348.689L1048.81,346.569Z" style="fill:rgb(33,37,43);fill-rule:nonzero;"/>
    <path d="M1148,665L1148,635.73C1147.99,635.567 1147.99,635.403 1148,635.24C1148,634.996 1148.1,634.762 1148.27,634.59C1148.44,634.417 1148.68,634.32 1148.92,634.32C1149.16,634.32 1149.4,634.417 1149.57,634.59C1149.74,634.762 1149.84,634.996 1149.84,635.24C1149.87,635.456 1149.87,635.675 1149.84,635.89C1149.77,636.455 1149.83,637.027 1150,637.568C1150.17,638.109 1150.46,638.608 1150.84,639.03C1151.77,640.293 1152.77,641.501 1153.84,642.65C1155.52,644.387 1156.57,646.631 1156.84,649.03C1156.88,650.374 1156.76,651.718 1156.47,653.03C1156.29,654.24 1156.01,655.45 1155.73,656.64C1155.62,654.99 1155.55,653.33 1155.38,651.64C1155.29,649.966 1154.96,648.314 1154.38,646.74C1154.1,645.951 1153.53,645.294 1152.79,644.897C1152.05,644.499 1151.19,644.39 1150.38,644.59C1149.89,644.66 1149.74,644.86 1149.74,645.36L1149.74,667.48C1149.82,671.12 1147.74,673.55 1144.01,674.21C1142.65,674.459 1141.25,674.259 1140.01,673.64C1139.43,673.345 1138.91,672.931 1138.49,672.425C1138.07,671.919 1137.77,671.332 1137.59,670.701C1137.41,670.07 1137.37,669.409 1137.46,668.76C1137.55,668.111 1137.78,667.488 1138.12,666.93C1139.43,664.88 1142.9,663.31 1145.26,663.86C1146.21,664.156 1147.12,664.538 1148,665Z" style="fill:rgb(33,37,43);fill-rule:nonzero;"/>
    <path d="M695,365L695,335.73C694.99,335.567 694.99,335.403 695,335.24C695,334.996 695.097,334.762 695.269,334.59C695.442,334.417 695.676,334.32 695.92,334.32C696.164,334.32 696.398,334.417 696.571,334.59C696.743,334.762 696.84,334.996 696.84,335.24C696.87,335.456 696.87,335.675 696.84,335.89C696.774,336.455 696.829,337.027 697.002,337.568C697.174,338.11 697.46,338.608 697.84,339.03C698.771,340.293 699.772,341.501 700.84,342.65C702.517,344.387 703.572,346.631 703.84,349.03C703.88,350.357 703.755,351.684 703.47,352.98C703.29,354.19 703.01,355.4 702.73,356.59C702.62,354.94 702.55,353.28 702.38,351.59C702.294,349.916 701.957,348.264 701.38,346.69C701.097,345.901 700.532,345.244 699.793,344.847C699.054,344.449 698.195,344.34 697.38,344.54C696.89,344.61 696.74,344.81 696.74,345.31L696.74,367.43C696.82,371.07 694.74,373.5 691.01,374.16C689.65,374.409 688.246,374.209 687.01,373.59C686.425,373.295 685.908,372.881 685.491,372.375C685.074,371.869 684.768,371.282 684.59,370.651C684.412,370.02 684.368,369.359 684.459,368.71C684.55,368.061 684.775,367.438 685.12,366.88C686.43,364.83 689.9,363.26 692.26,363.81C693.208,364.122 694.125,364.521 695,365Z" style="fill:rgb(33,37,43);fill-rule:nonzero;"/>
    <path d="M615,856.891L615,827.661C614.99,827.498 614.99,827.334 615,827.171C615.029,826.945 615.133,826.736 615.297,826.578C615.461,826.419 615.673,826.322 615.9,826.301C616.135,826.313 616.358,826.408 616.53,826.569C616.702,826.73 616.812,826.947 616.84,827.181C616.87,827.4 616.87,827.622 616.84,827.841C616.774,828.405 616.829,828.977 617.002,829.519C617.174,830.06 617.46,830.558 617.84,830.981C618.773,832.241 619.775,833.45 620.84,834.601C622.517,836.338 623.572,838.581 623.84,840.981C623.879,842.304 623.755,843.628 623.47,844.921C623.29,846.141 623.01,847.341 622.73,848.531C622.62,846.881 622.55,845.231 622.38,843.581C622.293,841.907 621.956,840.255 621.38,838.681C621.095,837.892 620.53,837.237 619.792,836.84C619.053,836.443 618.194,836.333 617.38,836.531C616.89,836.601 616.74,836.801 616.74,837.301L616.74,859.421C616.82,863.071 614.74,865.501 611.01,866.151C609.651,866.407 608.246,866.211 607.01,865.591C606.425,865.295 605.908,864.881 605.491,864.375C605.074,863.869 604.768,863.282 604.59,862.651C604.412,862.02 604.368,861.359 604.459,860.71C604.55,860.061 604.775,859.438 605.12,858.881C606.43,856.881 609.9,855.261 612.26,855.801C613.203,856.085 614.119,856.45 615,856.891Z" style="fill:rgb(33,37,43);fill-rule:nonzero;"/>
    <path d="M885.9,731.72C885.9,731.84 885.9,731.95 885.82,732.07C885.187,735.016 885.723,738.093 887.314,740.653C888.905,743.212 891.428,745.054 894.35,745.79L913.27,750.49L919.85,730.29L901.25,723.37C899.698,722.793 898.04,722.556 896.389,722.674C894.737,722.792 893.13,723.262 891.676,724.053C890.221,724.845 888.953,725.938 887.957,727.261C886.961,728.583 886.259,730.104 885.9,731.72Z" style="fill:rgb(77,97,252);fill-rule:nonzero;"/>
    <g opacity="0.4">
        <path d="M885.9,731.72C885.9,731.84 885.9,731.95 885.82,732.07C885.187,735.016 885.723,738.093 887.314,740.653C888.905,743.212 891.428,745.054 894.35,745.79L913.27,750.49L919.85,730.29L901.25,723.37C899.698,722.793 898.04,722.556 896.389,722.674C894.737,722.792 893.13,723.262 891.676,724.053C890.221,724.845 888.953,725.938 887.957,727.261C886.961,728.583 886.259,730.104 885.9,731.72Z" style="fill:rgb(10,77,166);fill-opacity:0.4;fill-rule:nonzero;"/>
    </g>
    <path d="M892.2,744.83C891.824,744.042 891.529,743.218 891.32,742.37C890.85,740.83 890.25,738.68 889.69,736.28C889.13,733.88 888.69,731.69 888.45,730.1C888.265,729.245 888.161,728.375 888.14,727.5C888.424,728.327 888.635,729.177 888.77,730.04C889.26,732.22 889.68,734.13 890.14,736.18C890.6,738.23 891.14,740.11 891.63,742.28C891.89,743.113 892.08,743.966 892.2,744.83Z" style="fill:rgb(134,138,145);fill-rule:nonzero;"/>
    <path d="M897.54,746.699C897.41,746.699 896.37,741.649 895.21,735.369C894.05,729.089 893.21,723.969 893.34,723.949C893.47,723.929 894.5,728.949 895.66,735.279C896.82,741.609 897.66,746.679 897.54,746.699Z" style="fill:rgb(134,138,145);fill-rule:nonzero;"/>
    <path d="M904.11,747.88C903.99,747.88 902.74,742.35 901.32,735.47C899.9,728.59 898.86,723 899,723C899.14,723 900.37,728.54 901.79,735.42C903.21,742.3 904.24,747.86 904.11,747.88Z" style="fill:rgb(134,138,145);fill-rule:nonzero;"/>
    <path d="M909,743C908.751,742.147 908.577,741.273 908.48,740.39C908.08,738.16 907.73,736.19 907.36,734.08C906.99,731.97 906.55,730.02 906.11,727.8C905.883,726.94 905.726,726.064 905.64,725.18C905.98,726.003 906.241,726.857 906.42,727.73C906.84,729.32 907.35,731.53 907.81,734C908.27,736.47 908.61,738.71 908.81,740.34C908.954,741.219 909.018,742.109 909,743Z" style="fill:rgb(134,138,145);fill-rule:nonzero;"/>
    <path d="M913.66,733C913.202,732.076 912.885,731.088 912.72,730.07C912.416,729.099 912.254,728.088 912.24,727.07C912.692,727.996 913.005,728.983 913.17,730C913.474,730.972 913.639,731.982 913.66,733Z" style="fill:rgb(134,138,145);fill-rule:nonzero;"/>
    <path d="M908.05,744.631C906.118,745.152 904.149,745.527 902.16,745.751C900.197,746.131 898.208,746.355 896.21,746.421C898.139,745.899 900.104,745.524 902.09,745.301C904.056,744.921 906.049,744.697 908.05,744.631Z" style="fill:rgb(134,138,145);fill-rule:nonzero;"/>
    <path d="M911.71,738C911.71,738.13 906.5,739.13 900.02,740.25C893.54,741.37 888.26,742.17 888.24,742.04C888.22,741.91 893.46,740.91 899.94,739.79C906.42,738.67 911.69,737.86 911.71,738Z" style="fill:rgb(134,138,145);fill-rule:nonzero;"/>
    <path d="M914.55,731.801C914.55,731.931 908.04,732.971 899.97,734.121C891.9,735.271 885.34,736.121 885.32,735.991C885.3,735.861 891.83,734.831 899.9,733.671C907.97,732.511 914.53,731.681 914.55,731.801Z" style="fill:rgb(134,138,145);fill-rule:nonzero;"/>
    <path d="M908.65,726.23C908.65,726.36 903.76,727.16 897.65,728.03C891.54,728.9 886.65,729.5 886.65,729.37C886.65,729.24 891.55,728.44 897.65,727.58C903.75,726.72 908.64,726.11 908.65,726.23Z" style="fill:rgb(134,138,145);fill-rule:nonzero;"/>
    <path d="M914.8,727.529L907,750.419L944,762.069C945.689,762.472 947.468,762.224 948.984,761.375C950.499,760.527 951.64,759.14 952.18,757.489L954.52,750.319C955.051,748.689 954.958,746.919 954.26,745.353C953.562,743.786 952.308,742.535 950.74,741.839L914.8,727.529Z" style="fill:rgb(63,66,73);fill-rule:nonzero;"/>
    <path d="M1001.29,801L1007.89,801C1008.53,801 1009.14,801.253 1009.59,801.703C1010.04,802.153 1010.29,802.764 1010.29,803.4L1010.29,1041.14L998.89,1041.14L998.89,803.4C998.89,802.764 999.143,802.153 999.593,801.703C1000.04,801.253 1000.65,801 1001.29,801Z" style="fill:rgb(97,101,109);fill-rule:nonzero;"/>
    <path d="M960,755.289C1018.69,805.739 955.57,834.379 995.66,864.999C995.66,864.999 1015.66,876.579 1007.92,896.629C1002.59,909.569 983.25,907.379 983.83,889.629C984.61,865.819 1028.37,865.039 1006.83,823.629" style="fill:none;fill-rule:nonzero;stroke:rgb(63,66,73);stroke-width:1.19px;"/>
    <path d="M998.89,806L1010.29,813.89L1010.29,829C1010.29,829.268 1010.21,829.53 1010.07,829.758C1009.93,829.986 1009.73,830.171 1009.49,830.293C1009.26,830.415 1008.99,830.469 1008.72,830.449C1008.45,830.429 1008.2,830.336 1007.98,830.18L998.88,823.7L998.89,806Z" style="fill-opacity:0.2;fill-rule:nonzero;"/>
    <path d="M922.263,757.945L918.072,764.043C917.446,764.953 917.677,766.199 918.587,766.824L1007.82,828.155C1008.73,828.78 1009.98,828.55 1010.6,827.639L1014.8,821.541C1015.42,820.63 1015.19,819.385 1014.28,818.76L925.044,757.429C924.134,756.804 922.889,757.034 922.263,757.945Z" style="fill:rgb(97,101,109);fill-rule:nonzero;"/>
    <path d="M925.23,771.44C925.679,771.637 926.177,771.695 926.66,771.608C927.142,771.52 927.588,771.292 927.94,770.95L933.37,763.21L930.13,761L923.7,770.22L925.23,771.44Z" style="fill-opacity:0.2;fill-rule:nonzero;"/>
    <path d="M1008.25,818.461C1008.25,819.185 1008.04,819.892 1007.63,820.494C1007.23,821.096 1006.66,821.565 1005.99,821.842C1005.32,822.119 1004.59,822.192 1003.88,822.05C1003.17,821.909 1002.51,821.561 1002,821.049C1001.49,820.537 1001.14,819.885 1001,819.175C1000.86,818.465 1000.93,817.729 1001.21,817.06C1001.49,816.391 1001.95,815.82 1002.56,815.418C1003.16,815.015 1003.87,814.801 1004.59,814.801C1005.56,814.801 1006.49,815.186 1007.18,815.873C1007.86,816.559 1008.25,817.49 1008.25,818.461Z" style="fill:rgb(63,66,73);fill-rule:nonzero;"/>
    <path d="M949.41,754.241L960.06,757.391L960.85,754.241L949.41,750.881L949.41,754.241Z" style="fill:rgb(63,66,73);fill-rule:nonzero;"/>
    <path d="M1039.14,1035.51L968.44,1035.51C967.888,1035.51 967.44,1035.96 967.44,1036.51L967.44,1041.67C967.44,1042.22 967.888,1042.67 968.44,1042.67L1039.14,1042.67C1039.69,1042.67 1040.14,1042.22 1040.14,1041.67L1040.14,1036.51C1040.14,1035.96 1039.69,1035.51 1039.14,1035.51Z" style="fill:rgb(63,66,73);fill-rule:nonzero;"/>
    <path d="M917.54,753.74L918.04,752.86C920.64,748.258 922.385,743.224 923.19,738L944.65,745.91L944.65,746.1C944.638,751.4 942.881,756.549 939.65,760.75L917.54,753.74Z" style="fill:rgb(97,101,109);fill-rule:nonzero;"/>
    <path d="M923.19,738C923.19,738 921.45,747.3 917.54,753.76L918.77,754.15C921.838,749.426 923.784,744.062 924.46,738.47L923.19,738Z" style="fill-opacity:0.2;fill-rule:nonzero;"/>
    <path d="M927.192,750.377L936.043,756.46L926.833,769.86C926.533,770.298 926.071,770.598 925.55,770.694C925.028,770.791 924.489,770.676 924.052,770.376L918.498,766.558C918.061,766.258 917.761,765.796 917.664,765.275C917.567,764.753 917.682,764.214 917.982,763.777L927.192,750.377Z" style="fill:rgb(97,101,109);fill-rule:nonzero;"/>
    <path d="M928.28,763.551C928.28,764.274 928.065,764.982 927.663,765.584C927.261,766.186 926.689,766.655 926.021,766.932C925.352,767.209 924.616,767.281 923.906,767.14C923.196,766.999 922.544,766.65 922.032,766.139C921.52,765.627 921.172,764.975 921.03,764.265C920.889,763.555 920.962,762.819 921.239,762.15C921.516,761.481 921.985,760.91 922.587,760.507C923.189,760.105 923.896,759.891 924.62,759.891C925.591,759.891 926.522,760.276 927.208,760.963C927.894,761.649 928.28,762.58 928.28,763.551Z" style="fill:rgb(63,66,73);fill-rule:nonzero;"/>
    <path d="M923.04,756.401L933.53,760.101L934.27,759.021L923.56,755.641L923.04,756.401Z" style="fill-opacity:0.2;fill-rule:nonzero;"/>
    <path d="M661.45,742.16C656.516,744.982 651.428,747.526 646.21,749.78" style="fill:none;fill-rule:nonzero;stroke:black;stroke-opacity:0.2;stroke-width:1.03px;"/>
    <rect x="586.22" y="426.82" width="5.25" height="3.95" style="fill:rgb(10,77,166);fill-rule:nonzero;"/>
    <rect x="586.22" y="641.391" width="5.25" height="3.82" style="fill:rgb(10,77,166);fill-rule:nonzero;"/>
    <rect x="586.22" y="633.73" width="5.25" height="3.82" style="fill:rgb(10,77,166);fill-rule:nonzero;"/>
    <rect x="586.22" y="626.07" width="5.25" height="3.82" style="fill:rgb(10,77,166);fill-rule:nonzero;"/>
    <rect x="586.22" y="618.42" width="5.25" height="3.82" style="fill:rgb(10,77,166);fill-rule:nonzero;"/>
    <rect x="586.22" y="603.1" width="5.25" height="3.82" style="fill:rgb(10,77,166);fill-rule:nonzero;"/>
    <rect x="586.22" y="610.76" width="5.25" height="3.82" style="fill:rgb(10,77,166);fill-rule:nonzero;"/>
    <rect x="586.22" y="580.119" width="5.25" height="3.82" style="fill:rgb(10,77,166);fill-rule:nonzero;"/>
    <rect x="586.22" y="557.15" width="5.25" height="3.82" style="fill:rgb(10,77,166);fill-rule:nonzero;"/>
    <rect x="586.22" y="549.49" width="5.25" height="3.82" style="fill:rgb(10,77,166);fill-rule:nonzero;"/>
    <rect x="586.22" y="534.17" width="5.25" height="3.82" style="fill:rgb(10,77,166);fill-rule:nonzero;"/>
    <rect x="586.22" y="541.83" width="5.25" height="3.82" style="fill:rgb(10,77,166);fill-rule:nonzero;"/>
    <rect x="586.22" y="595.439" width="5.25" height="3.82" style="fill:rgb(10,77,166);fill-rule:nonzero;"/>
    <rect x="586.22" y="564.801" width="5.25" height="3.82" style="fill:rgb(10,77,166);fill-rule:nonzero;"/>
    <rect x="586.22" y="572.461" width="5.25" height="3.82" style="fill:rgb(10,77,166);fill-rule:nonzero;"/>
    <rect x="586.22" y="465.24" width="5.25" height="3.82" style="fill:rgb(10,77,166);fill-rule:nonzero;"/>
    <rect x="586.22" y="587.779" width="5.25" height="3.82" style="fill:rgb(10,77,166);fill-rule:nonzero;"/>
    <rect x="586.22" y="495.869" width="5.25" height="3.82" style="fill:rgb(10,77,166);fill-rule:nonzero;"/>
    <rect x="586.22" y="488.221" width="5.25" height="3.82" style="fill:rgb(10,77,166);fill-rule:nonzero;"/>
    <rect x="586.22" y="526.51" width="5.25" height="3.82" style="fill:rgb(10,77,166);fill-rule:nonzero;"/>
    <rect x="586.22" y="480.561" width="5.25" height="3.82" style="fill:rgb(10,77,166);fill-rule:nonzero;"/>
    <rect x="586.22" y="511.189" width="5.25" height="3.82" style="fill:rgb(10,77,166);fill-rule:nonzero;"/>
    <rect x="586.22" y="518.85" width="5.25" height="3.82" style="fill:rgb(10,77,166);fill-rule:nonzero;"/>
    <rect x="586.22" y="503.529" width="5.25" height="3.82" style="fill:rgb(10,77,166);fill-rule:nonzero;"/>
    <rect x="586.22" y="442.26" width="5.25" height="3.82" style="fill:rgb(10,77,166);fill-rule:nonzero;"/>
    <rect x="586.22" y="434.6" width="5.25" height="3.82" style="fill:rgb(10,77,166);fill-rule:nonzero;"/>
    <rect x="586.22" y="472.9" width="5.25" height="3.82" style="fill:rgb(10,77,166);fill-rule:nonzero;"/>
    <rect x="586.22" y="449.92" width="5.25" height="3.82" style="fill:rgb(10,77,166);fill-rule:nonzero;"/>
    <rect x="586.22" y="457.58" width="5.25" height="3.82" style="fill:rgb(10,77,166);fill-rule:nonzero;"/>
    <rect x="586.22" y="649.051" width="5.25" height="3.95" style="fill:rgb(10,77,166);fill-rule:nonzero;"/>
    <rect x="669.95" y="468.01" width="5.25" height="3.95" style="fill:rgb(10,77,166);fill-rule:nonzero;"/>
    <rect x="669.95" y="537.971" width="5.25" height="3.87" style="fill:rgb(10,77,166);fill-rule:nonzero;"/>
    <rect x="669.95" y="561.211" width="5.25" height="3.87" style="fill:rgb(10,77,166);fill-rule:nonzero;"/>
    <rect x="669.95" y="568.961" width="5.25" height="3.87" style="fill:rgb(10,77,166);fill-rule:nonzero;"/>
    <rect x="669.95" y="553.471" width="5.25" height="3.87" style="fill:rgb(10,77,166);fill-rule:nonzero;"/>
    <rect x="669.95" y="576.711" width="5.25" height="3.87" style="fill:rgb(10,77,166);fill-rule:nonzero;"/>
    <rect x="669.95" y="584.461" width="5.25" height="3.87" style="fill:rgb(10,77,166);fill-rule:nonzero;"/>
    <rect x="669.95" y="599.949" width="5.25" height="3.87" style="fill:rgb(10,77,166);fill-rule:nonzero;"/>
    <rect x="669.95" y="592.199" width="5.25" height="3.87" style="fill:rgb(10,77,166);fill-rule:nonzero;"/>
    <rect x="669.95" y="545.721" width="5.25" height="3.87" style="fill:rgb(10,77,166);fill-rule:nonzero;"/>
    <rect x="669.95" y="522.48" width="5.25" height="3.87" style="fill:rgb(10,77,166);fill-rule:nonzero;"/>
    <rect x="669.95" y="514.73" width="5.25" height="3.87" style="fill:rgb(10,77,166);fill-rule:nonzero;"/>
    <rect x="669.95" y="499.24" width="5.25" height="3.87" style="fill:rgb(10,77,166);fill-rule:nonzero;"/>
    <rect x="669.95" y="491.49" width="5.25" height="3.87" style="fill:rgb(10,77,166);fill-rule:nonzero;"/>
    <rect x="669.95" y="483.74" width="5.25" height="3.87" style="fill:rgb(10,77,166);fill-rule:nonzero;"/>
    <rect x="669.95" y="530.23" width="5.25" height="3.87" style="fill:rgb(10,77,166);fill-rule:nonzero;"/>
    <rect x="669.95" y="476" width="5.25" height="3.87" style="fill:rgb(10,77,166);fill-rule:nonzero;"/>
    <rect x="669.95" y="506.99" width="5.25" height="3.87" style="fill:rgb(10,77,166);fill-rule:nonzero;"/>
    <rect x="669.95" y="607.859" width="5.25" height="3.95" style="fill:rgb(10,77,166);fill-rule:nonzero;"/>
    <g opacity="0.7">
        <rect x="809.5" y="468.01" width="5.25" height="3.95" style="fill:rgb(10,77,166);fill-opacity:0.7;fill-rule:nonzero;"/>
        <rect x="809.5" y="483.74" width="5.25" height="3.87" style="fill:rgb(10,77,166);fill-opacity:0.7;fill-rule:nonzero;"/>
        <rect x="809.5" y="476" width="5.25" height="3.87" style="fill:rgb(10,77,166);fill-opacity:0.7;fill-rule:nonzero;"/>
        <rect x="809.5" y="599.949" width="5.25" height="3.87" style="fill:rgb(10,77,166);fill-opacity:0.7;fill-rule:nonzero;"/>
        <rect x="809.5" y="491.49" width="5.25" height="3.87" style="fill:rgb(10,77,166);fill-opacity:0.7;fill-rule:nonzero;"/>
        <rect x="809.5" y="522.48" width="5.25" height="3.87" style="fill:rgb(10,77,166);fill-opacity:0.7;fill-rule:nonzero;"/>
        <rect x="809.5" y="568.959" width="5.25" height="3.87" style="fill:rgb(10,77,166);fill-opacity:0.7;fill-rule:nonzero;"/>
        <rect x="809.5" y="545.719" width="5.25" height="3.87" style="fill:rgb(10,77,166);fill-opacity:0.7;fill-rule:nonzero;"/>
        <rect x="809.5" y="561.209" width="5.25" height="3.87" style="fill:rgb(10,77,166);fill-opacity:0.7;fill-rule:nonzero;"/>
        <rect x="809.5" y="499.24" width="5.25" height="3.87" style="fill:rgb(10,77,166);fill-opacity:0.7;fill-rule:nonzero;"/>
        <rect x="809.5" y="584.459" width="5.25" height="3.87" style="fill:rgb(10,77,166);fill-opacity:0.7;fill-rule:nonzero;"/>
        <rect x="809.5" y="576.709" width="5.25" height="3.87" style="fill:rgb(10,77,166);fill-opacity:0.7;fill-rule:nonzero;"/>
        <rect x="809.5" y="514.73" width="5.25" height="3.87" style="fill:rgb(10,77,166);fill-opacity:0.7;fill-rule:nonzero;"/>
        <rect x="809.5" y="537.969" width="5.25" height="3.87" style="fill:rgb(10,77,166);fill-opacity:0.7;fill-rule:nonzero;"/>
        <rect x="809.5" y="506.99" width="5.25" height="3.87" style="fill:rgb(10,77,166);fill-opacity:0.7;fill-rule:nonzero;"/>
        <rect x="809.5" y="592.199" width="5.25" height="3.87" style="fill:rgb(10,77,166);fill-opacity:0.7;fill-rule:nonzero;"/>
        <rect x="809.5" y="530.23" width="5.25" height="3.87" style="fill:rgb(10,77,166);fill-opacity:0.7;fill-rule:nonzero;"/>
        <rect x="809.5" y="553.469" width="5.25" height="3.87" style="fill:rgb(10,77,166);fill-opacity:0.7;fill-rule:nonzero;"/>
        <rect x="809.5" y="607.859" width="5.25" height="3.95" style="fill:rgb(10,77,166);fill-opacity:0.7;fill-rule:nonzero;"/>
    </g>
    <rect x="893.22" y="468.01" width="5.25" height="3.95" style="fill:rgb(10,77,166);fill-rule:nonzero;"/>
    <rect x="893.22" y="506.99" width="5.25" height="3.87" style="fill:rgb(10,77,166);fill-rule:nonzero;"/>
    <rect x="893.22" y="599.949" width="5.25" height="3.87" style="fill:rgb(10,77,166);fill-rule:nonzero;"/>
    <rect x="893.22" y="499.24" width="5.25" height="3.87" style="fill:rgb(10,77,166);fill-rule:nonzero;"/>
    <rect x="893.22" y="514.73" width="5.25" height="3.87" style="fill:rgb(10,77,166);fill-rule:nonzero;"/>
    <rect x="893.22" y="491.49" width="5.25" height="3.87" style="fill:rgb(10,77,166);fill-rule:nonzero;"/>
    <rect x="893.22" y="592.199" width="5.25" height="3.87" style="fill:rgb(10,77,166);fill-rule:nonzero;"/>
    <rect x="893.22" y="476" width="5.25" height="3.87" style="fill:rgb(10,77,166);fill-rule:nonzero;"/>
    <rect x="893.22" y="483.74" width="5.25" height="3.87" style="fill:rgb(10,77,166);fill-rule:nonzero;"/>
    <rect x="893.22" y="545.721" width="5.25" height="3.87" style="fill:rgb(10,77,166);fill-rule:nonzero;"/>
    <rect x="893.22" y="553.471" width="5.25" height="3.87" style="fill:rgb(10,77,166);fill-rule:nonzero;"/>
    <rect x="893.22" y="537.971" width="5.25" height="3.87" style="fill:rgb(10,77,166);fill-rule:nonzero;"/>
    <rect x="893.22" y="522.48" width="5.25" height="3.87" style="fill:rgb(10,77,166);fill-rule:nonzero;"/>
    <rect x="893.22" y="561.211" width="5.25" height="3.87" style="fill:rgb(10,77,166);fill-rule:nonzero;"/>
    <rect x="893.22" y="584.461" width="5.25" height="3.87" style="fill:rgb(10,77,166);fill-rule:nonzero;"/>
    <rect x="893.22" y="576.711" width="5.25" height="3.87" style="fill:rgb(10,77,166);fill-rule:nonzero;"/>
    <rect x="893.22" y="568.961" width="5.25" height="3.87" style="fill:rgb(10,77,166);fill-rule:nonzero;"/>
    <rect x="893.22" y="530.23" width="5.25" height="3.87" style="fill:rgb(10,77,166);fill-rule:nonzero;"/>
    <rect x="893.22" y="607.859" width="5.25" height="3.95" style="fill:rgb(10,77,166);fill-rule:nonzero;"/>
    <rect x="530.4" y="454.141" width="5.25" height="3.95" style="fill:rgb(10,77,166);fill-rule:nonzero;"/>
    <rect x="530.4" y="576.07" width="5.25" height="3.8" style="fill:rgb(10,77,166);fill-rule:nonzero;"/>
    <rect x="530.4" y="568.449" width="5.25" height="3.8" style="fill:rgb(10,77,166);fill-rule:nonzero;"/>
    <rect x="530.4" y="560.84" width="5.25" height="3.8" style="fill:rgb(10,77,166);fill-rule:nonzero;"/>
    <rect x="530.4" y="553.23" width="5.25" height="3.801" style="fill:rgb(10,77,166);fill-rule:nonzero;"/>
    <rect x="530.4" y="583.68" width="5.25" height="3.8" style="fill:rgb(10,77,166);fill-rule:nonzero;"/>
    <rect x="530.4" y="591.289" width="5.25" height="3.8" style="fill:rgb(10,77,166);fill-rule:nonzero;"/>
    <rect x="530.4" y="614.119" width="5.25" height="3.8" style="fill:rgb(10,77,166);fill-rule:nonzero;"/>
    <rect x="530.4" y="606.51" width="5.25" height="3.8" style="fill:rgb(10,77,166);fill-rule:nonzero;"/>
    <rect x="530.4" y="545.619" width="5.25" height="3.8" style="fill:rgb(10,77,166);fill-rule:nonzero;"/>
    <rect x="530.4" y="598.9" width="5.25" height="3.8" style="fill:rgb(10,77,166);fill-rule:nonzero;"/>
    <rect x="530.4" y="477.119" width="5.25" height="3.8" style="fill:rgb(10,77,166);fill-rule:nonzero;"/>
    <rect x="530.4" y="499.961" width="5.25" height="3.8" style="fill:rgb(10,77,166);fill-rule:nonzero;"/>
    <rect x="530.4" y="538.01" width="5.25" height="3.8" style="fill:rgb(10,77,166);fill-rule:nonzero;"/>
    <rect x="530.4" y="507.57" width="5.25" height="3.8" style="fill:rgb(10,77,166);fill-rule:nonzero;"/>
    <rect x="530.4" y="484.73" width="5.25" height="3.8" style="fill:rgb(10,77,166);fill-rule:nonzero;"/>
    <rect x="530.4" y="492.34" width="5.25" height="3.8" style="fill:rgb(10,77,166);fill-rule:nonzero;"/>
    <rect x="530.4" y="469.51" width="5.25" height="3.8" style="fill:rgb(10,77,166);fill-rule:nonzero;"/>
    <rect x="530.4" y="530.4" width="5.25" height="3.8" style="fill:rgb(10,77,166);fill-rule:nonzero;"/>
    <rect x="530.4" y="522.789" width="5.25" height="3.8" style="fill:rgb(10,77,166);fill-rule:nonzero;"/>
    <rect x="530.4" y="515.18" width="5.25" height="3.8" style="fill:rgb(10,77,166);fill-rule:nonzero;"/>
    <rect x="530.4" y="461.9" width="5.25" height="3.8" style="fill:rgb(10,77,166);fill-rule:nonzero;"/>
    <rect x="530.4" y="621.73" width="5.25" height="3.95" style="fill:rgb(10,77,166);fill-rule:nonzero;"/>
    <rect x="837.41" y="437.48" width="5.25" height="3.95" style="fill:rgb(10,77,166);fill-rule:nonzero;"/>
    <rect x="837.41" y="599.67" width="5.25" height="3.86" style="fill:rgb(10,77,166);fill-rule:nonzero;"/>
    <rect x="837.41" y="607.381" width="5.25" height="3.86" style="fill:rgb(10,77,166);fill-rule:nonzero;"/>
    <rect x="837.41" y="591.961" width="5.25" height="3.86" style="fill:rgb(10,77,166);fill-rule:nonzero;"/>
    <rect x="837.41" y="584.25" width="5.25" height="3.86" style="fill:rgb(10,77,166);fill-rule:nonzero;"/>
    <rect x="837.41" y="576.539" width="5.25" height="3.86" style="fill:rgb(10,77,166);fill-rule:nonzero;"/>
    <rect x="837.41" y="460.869" width="5.25" height="3.86" style="fill:rgb(10,77,166);fill-rule:nonzero;"/>
    <rect x="837.41" y="630.52" width="5.25" height="3.86" style="fill:rgb(10,77,166);fill-rule:nonzero;"/>
    <rect x="837.41" y="445.449" width="5.25" height="3.86" style="fill:rgb(10,77,166);fill-rule:nonzero;"/>
    <rect x="837.41" y="622.801" width="5.25" height="3.86" style="fill:rgb(10,77,166);fill-rule:nonzero;"/>
    <rect x="837.41" y="468.58" width="5.25" height="3.86" style="fill:rgb(10,77,166);fill-rule:nonzero;"/>
    <rect x="837.41" y="568.83" width="5.25" height="3.86" style="fill:rgb(10,77,166);fill-rule:nonzero;"/>
    <rect x="837.41" y="453.16" width="5.25" height="3.86" style="fill:rgb(10,77,166);fill-rule:nonzero;"/>
    <rect x="837.41" y="561.119" width="5.25" height="3.86" style="fill:rgb(10,77,166);fill-rule:nonzero;"/>
    <rect x="837.41" y="499.43" width="5.25" height="3.86" style="fill:rgb(10,77,166);fill-rule:nonzero;"/>
    <rect x="837.41" y="507.141" width="5.25" height="3.86" style="fill:rgb(10,77,166);fill-rule:nonzero;"/>
    <rect x="837.41" y="514.85" width="5.25" height="3.86" style="fill:rgb(10,77,166);fill-rule:nonzero;"/>
    <rect x="837.41" y="491.721" width="5.25" height="3.86" style="fill:rgb(10,77,166);fill-rule:nonzero;"/>
    <rect x="837.41" y="522.561" width="5.25" height="3.86" style="fill:rgb(10,77,166);fill-rule:nonzero;"/>
    <rect x="837.41" y="615.09" width="5.25" height="3.86" style="fill:rgb(10,77,166);fill-rule:nonzero;"/>
    <rect x="837.41" y="545.689" width="5.25" height="3.86" style="fill:rgb(10,77,166);fill-rule:nonzero;"/>
    <rect x="837.41" y="530.27" width="5.25" height="3.86" style="fill:rgb(10,77,166);fill-rule:nonzero;"/>
    <rect x="837.41" y="537.98" width="5.25" height="3.861" style="fill:rgb(10,77,166);fill-rule:nonzero;"/>
    <rect x="837.41" y="553.4" width="5.25" height="3.86" style="fill:rgb(10,77,166);fill-rule:nonzero;"/>
    <rect x="837.41" y="484" width="5.25" height="3.86" style="fill:rgb(10,77,166);fill-rule:nonzero;"/>
    <rect x="837.41" y="476.289" width="5.25" height="3.86" style="fill:rgb(10,77,166);fill-rule:nonzero;"/>
    <rect x="837.41" y="638.391" width="5.25" height="3.95" style="fill:rgb(10,77,166);fill-rule:nonzero;"/>
    <g opacity="0.7">
        <rect x="558.31" y="494.211" width="5.25" height="3.95" style="fill:rgb(10,77,166);fill-opacity:0.7;fill-rule:nonzero;"/>
        <rect x="558.31" y="557.811" width="5.25" height="3.96" style="fill:rgb(10,77,166);fill-opacity:0.7;fill-rule:nonzero;"/>
        <rect x="558.31" y="573.711" width="5.25" height="3.96" style="fill:rgb(10,77,166);fill-opacity:0.7;fill-rule:nonzero;"/>
        <rect x="558.31" y="565.762" width="5.25" height="3.96" style="fill:rgb(10,77,166);fill-opacity:0.7;fill-rule:nonzero;"/>
        <rect x="558.31" y="549.861" width="5.25" height="3.96" style="fill:rgb(10,77,166);fill-opacity:0.7;fill-rule:nonzero;"/>
        <rect x="558.31" y="533.951" width="5.25" height="3.96" style="fill:rgb(10,77,166);fill-opacity:0.7;fill-rule:nonzero;"/>
        <rect x="558.31" y="502.15" width="5.25" height="3.96" style="fill:rgb(10,77,166);fill-opacity:0.7;fill-rule:nonzero;"/>
        <rect x="558.31" y="510.102" width="5.25" height="3.96" style="fill:rgb(10,77,166);fill-opacity:0.7;fill-rule:nonzero;"/>
        <rect x="558.31" y="541.91" width="5.25" height="3.96" style="fill:rgb(10,77,166);fill-opacity:0.7;fill-rule:nonzero;"/>
        <rect x="558.31" y="518.051" width="5.25" height="3.96" style="fill:rgb(10,77,166);fill-opacity:0.7;fill-rule:nonzero;"/>
        <rect x="558.31" y="526" width="5.25" height="3.96" style="fill:rgb(10,77,166);fill-opacity:0.7;fill-rule:nonzero;"/>
        <rect x="558.31" y="581.66" width="5.25" height="3.95" style="fill:rgb(10,77,166);fill-opacity:0.7;fill-rule:nonzero;"/>
    </g>
    <rect x="614.13" y="454.141" width="5.25" height="3.95" style="fill:rgb(10,77,166);fill-rule:nonzero;"/>
    <rect x="614.13" y="576.07" width="5.25" height="3.8" style="fill:rgb(10,77,166);fill-rule:nonzero;"/>
    <rect x="614.13" y="568.449" width="5.25" height="3.8" style="fill:rgb(10,77,166);fill-rule:nonzero;"/>
    <rect x="614.13" y="560.84" width="5.25" height="3.8" style="fill:rgb(10,77,166);fill-rule:nonzero;"/>
    <rect x="614.13" y="553.23" width="5.25" height="3.801" style="fill:rgb(10,77,166);fill-rule:nonzero;"/>
    <rect x="614.13" y="583.68" width="5.25" height="3.8" style="fill:rgb(10,77,166);fill-rule:nonzero;"/>
    <rect x="614.13" y="591.289" width="5.25" height="3.8" style="fill:rgb(10,77,166);fill-rule:nonzero;"/>
    <rect x="614.13" y="614.119" width="5.25" height="3.8" style="fill:rgb(10,77,166);fill-rule:nonzero;"/>
    <rect x="614.13" y="606.51" width="5.25" height="3.8" style="fill:rgb(10,77,166);fill-rule:nonzero;"/>
    <rect x="614.13" y="545.619" width="5.25" height="3.8" style="fill:rgb(10,77,166);fill-rule:nonzero;"/>
    <rect x="614.13" y="598.9" width="5.25" height="3.8" style="fill:rgb(10,77,166);fill-rule:nonzero;"/>
    <rect x="614.13" y="477.119" width="5.25" height="3.8" style="fill:rgb(10,77,166);fill-rule:nonzero;"/>
    <rect x="614.13" y="499.961" width="5.25" height="3.8" style="fill:rgb(10,77,166);fill-rule:nonzero;"/>
    <rect x="614.13" y="538.01" width="5.25" height="3.8" style="fill:rgb(10,77,166);fill-rule:nonzero;"/>
    <rect x="614.13" y="507.57" width="5.25" height="3.8" style="fill:rgb(10,77,166);fill-rule:nonzero;"/>
    <rect x="614.13" y="484.73" width="5.25" height="3.8" style="fill:rgb(10,77,166);fill-rule:nonzero;"/>
    <rect x="614.13" y="492.34" width="5.25" height="3.8" style="fill:rgb(10,77,166);fill-rule:nonzero;"/>
    <rect x="614.13" y="469.51" width="5.25" height="3.8" style="fill:rgb(10,77,166);fill-rule:nonzero;"/>
    <rect x="614.13" y="530.4" width="5.25" height="3.8" style="fill:rgb(10,77,166);fill-rule:nonzero;"/>
    <rect x="614.13" y="522.789" width="5.25" height="3.8" style="fill:rgb(10,77,166);fill-rule:nonzero;"/>
    <rect x="614.13" y="515.18" width="5.25" height="3.8" style="fill:rgb(10,77,166);fill-rule:nonzero;"/>
    <rect x="614.13" y="461.9" width="5.25" height="3.8" style="fill:rgb(10,77,166);fill-rule:nonzero;"/>
    <rect x="614.13" y="621.73" width="5.25" height="3.95" style="fill:rgb(10,77,166);fill-rule:nonzero;"/>
    <g opacity="0.7">
        <rect x="642.04" y="494.211" width="5.25" height="3.95" style="fill:rgb(10,77,166);fill-opacity:0.7;fill-rule:nonzero;"/>
        <rect x="642.04" y="557.811" width="5.25" height="3.96" style="fill:rgb(10,77,166);fill-opacity:0.7;fill-rule:nonzero;"/>
        <rect x="642.04" y="573.711" width="5.25" height="3.96" style="fill:rgb(10,77,166);fill-opacity:0.7;fill-rule:nonzero;"/>
        <rect x="642.04" y="565.762" width="5.25" height="3.96" style="fill:rgb(10,77,166);fill-opacity:0.7;fill-rule:nonzero;"/>
        <rect x="642.04" y="549.861" width="5.25" height="3.96" style="fill:rgb(10,77,166);fill-opacity:0.7;fill-rule:nonzero;"/>
        <rect x="642.04" y="533.951" width="5.25" height="3.96" style="fill:rgb(10,77,166);fill-opacity:0.7;fill-rule:nonzero;"/>
        <rect x="642.04" y="502.15" width="5.25" height="3.96" style="fill:rgb(10,77,166);fill-opacity:0.7;fill-rule:nonzero;"/>
        <rect x="642.04" y="510.102" width="5.25" height="3.96" style="fill:rgb(10,77,166);fill-opacity:0.7;fill-rule:nonzero;"/>
        <rect x="642.04" y="541.91" width="5.25" height="3.96" style="fill:rgb(10,77,166);fill-opacity:0.7;fill-rule:nonzero;"/>
        <rect x="642.04" y="518.051" width="5.25" height="3.96" style="fill:rgb(10,77,166);fill-opacity:0.7;fill-rule:nonzero;"/>
        <rect x="642.04" y="526" width="5.25" height="3.96" style="fill:rgb(10,77,166);fill-opacity:0.7;fill-rule:nonzero;"/>
        <rect x="642.04" y="581.66" width="5.25" height="3.95" style="fill:rgb(10,77,166);fill-opacity:0.7;fill-rule:nonzero;"/>
    </g>
    <rect x="781.59" y="494.211" width="5.25" height="3.95" style="fill:rgb(10,77,166);fill-rule:nonzero;"/>
    <rect x="781.59" y="565.65" width="5.25" height="3.96" style="fill:rgb(10,77,166);fill-rule:nonzero;"/>
    <rect x="781.59" y="573.57" width="5.25" height="3.96" style="fill:rgb(10,77,166);fill-rule:nonzero;"/>
    <rect x="781.59" y="541.891" width="5.25" height="3.96" style="fill:rgb(10,77,166);fill-rule:nonzero;"/>
    <rect x="781.59" y="557.73" width="5.25" height="3.96" style="fill:rgb(10,77,166);fill-rule:nonzero;"/>
    <rect x="781.59" y="549.811" width="5.25" height="3.96" style="fill:rgb(10,77,166);fill-rule:nonzero;"/>
    <rect x="781.59" y="533.971" width="5.25" height="3.96" style="fill:rgb(10,77,166);fill-rule:nonzero;"/>
    <rect x="781.59" y="510.211" width="5.25" height="3.96" style="fill:rgb(10,77,166);fill-rule:nonzero;"/>
    <rect x="781.59" y="526.051" width="5.25" height="3.96" style="fill:rgb(10,77,166);fill-rule:nonzero;"/>
    <rect x="781.59" y="518.131" width="5.25" height="3.96" style="fill:rgb(10,77,166);fill-rule:nonzero;"/>
    <rect x="781.59" y="502.289" width="5.25" height="3.96" style="fill:rgb(10,77,166);fill-rule:nonzero;"/>
    <rect x="781.59" y="581.66" width="5.25" height="3.95" style="fill:rgb(10,77,166);fill-rule:nonzero;"/>
    <g opacity="0.7">
        <rect x="725.77" y="520.789" width="5.25" height="3.95" style="fill:rgb(10,77,166);fill-opacity:0.7;fill-rule:nonzero;"/>
        <rect x="725.77" y="537.77" width="5.25" height="4.279" style="fill:rgb(10,77,166);fill-opacity:0.7;fill-rule:nonzero;"/>
        <rect x="725.77" y="529.209" width="5.25" height="4.28" style="fill:rgb(10,77,166);fill-opacity:0.7;fill-rule:nonzero;"/>
        <rect x="725.77" y="546.328" width="5.25" height="4.28" style="fill:rgb(10,77,166);fill-opacity:0.7;fill-rule:nonzero;"/>
        <rect x="725.77" y="555.078" width="5.25" height="3.95" style="fill:rgb(10,77,166);fill-opacity:0.7;fill-rule:nonzero;"/>
    </g>
    <rect x="753.68" y="531.131" width="5.25" height="3.95" style="fill:rgb(10,77,166);fill-rule:nonzero;"/>
    <rect x="753.68" y="537.99" width="5.25" height="3.84" style="fill:rgb(10,77,166);fill-rule:nonzero;"/>
    <rect x="753.68" y="544.74" width="5.25" height="3.95" style="fill:rgb(10,77,166);fill-rule:nonzero;"/>
    <rect x="697.86" y="511.619" width="5.25" height="3.95" style="fill:rgb(10,77,166);fill-rule:nonzero;"/>
    <rect x="697.86" y="534.33" width="5.25" height="3.72" style="fill:rgb(10,77,166);fill-rule:nonzero;"/>
    <rect x="697.86" y="526.881" width="5.25" height="3.72" style="fill:rgb(10,77,166);fill-rule:nonzero;"/>
    <rect x="697.86" y="541.77" width="5.25" height="3.72" style="fill:rgb(10,77,166);fill-rule:nonzero;"/>
    <rect x="697.86" y="519.439" width="5.25" height="3.72" style="fill:rgb(10,77,166);fill-rule:nonzero;"/>
    <rect x="697.86" y="549.221" width="5.25" height="3.72" style="fill:rgb(10,77,166);fill-rule:nonzero;"/>
    <rect x="697.86" y="556.66" width="5.25" height="3.72" style="fill:rgb(10,77,166);fill-rule:nonzero;"/>
    <rect x="697.86" y="564.25" width="5.25" height="3.95" style="fill:rgb(10,77,166);fill-rule:nonzero;"/>
    <rect x="921.13" y="511.619" width="5.25" height="3.95" style="fill:rgb(10,77,166);fill-rule:nonzero;"/>
    <rect x="921.13" y="526.881" width="5.25" height="3.72" style="fill:rgb(10,77,166);fill-rule:nonzero;"/>
    <rect x="921.13" y="556.66" width="5.25" height="3.72" style="fill:rgb(10,77,166);fill-rule:nonzero;"/>
    <rect x="921.13" y="519.439" width="5.25" height="3.72" style="fill:rgb(10,77,166);fill-rule:nonzero;"/>
    <rect x="921.13" y="549.221" width="5.25" height="3.72" style="fill:rgb(10,77,166);fill-rule:nonzero;"/>
    <rect x="921.13" y="534.33" width="5.25" height="3.72" style="fill:rgb(10,77,166);fill-rule:nonzero;"/>
    <rect x="921.13" y="541.77" width="5.25" height="3.72" style="fill:rgb(10,77,166);fill-rule:nonzero;"/>
    <rect x="921.13" y="564.25" width="5.25" height="3.95" style="fill:rgb(10,77,166);fill-rule:nonzero;"/>
    <rect x="502.5" y="511.619" width="5.25" height="3.95" style="fill:rgb(10,77,166);fill-rule:nonzero;"/>
    <rect x="502.5" y="541.789" width="5.25" height="3.72" style="fill:rgb(10,77,166);fill-rule:nonzero;"/>
    <rect x="502.5" y="549.279" width="5.25" height="3.72" style="fill:rgb(10,77,166);fill-rule:nonzero;"/>
    <rect x="502.5" y="556.77" width="5.25" height="3.72" style="fill:rgb(10,77,166);fill-rule:nonzero;"/>
    <rect x="502.5" y="534.311" width="5.25" height="3.72" style="fill:rgb(10,77,166);fill-rule:nonzero;"/>
    <rect x="502.5" y="519.33" width="5.25" height="3.72" style="fill:rgb(10,77,166);fill-rule:nonzero;"/>
    <rect x="502.5" y="526.82" width="5.25" height="3.72" style="fill:rgb(10,77,166);fill-rule:nonzero;"/>
    <rect x="502.5" y="564.25" width="5.25" height="3.95" style="fill:rgb(10,77,166);fill-rule:nonzero;"/>
    <g opacity="0.7">
        <rect x="474.59" y="506.131" width="5.25" height="4.27" style="fill:rgb(10,77,166);fill-opacity:0.7;fill-rule:nonzero;"/>
        <rect x="474.59" y="537.98" width="5.25" height="4.09" style="fill:rgb(10,77,166);fill-opacity:0.7;fill-rule:nonzero;"/>
        <rect x="474.59" y="530.061" width="5.25" height="4.09" style="fill:rgb(10,77,166);fill-opacity:0.7;fill-rule:nonzero;"/>
        <rect x="474.59" y="545.891" width="5.25" height="4.09" style="fill:rgb(10,77,166);fill-opacity:0.7;fill-rule:nonzero;"/>
        <rect x="474.59" y="561.73" width="5.25" height="4.09" style="fill:rgb(10,77,166);fill-opacity:0.7;fill-rule:nonzero;"/>
        <rect x="474.59" y="553.811" width="5.25" height="4.09" style="fill:rgb(10,77,166);fill-opacity:0.7;fill-rule:nonzero;"/>
        <rect x="474.59" y="522.141" width="5.25" height="4.09" style="fill:rgb(10,77,166);fill-opacity:0.7;fill-rule:nonzero;"/>
        <rect x="474.59" y="514.221" width="5.25" height="4.09" style="fill:rgb(10,77,166);fill-opacity:0.7;fill-rule:nonzero;"/>
        <rect x="474.59" y="569.65" width="5.25" height="4.05" style="fill:rgb(10,77,166);fill-opacity:0.7;fill-rule:nonzero;"/>
    </g>
    <g opacity="0.7">
        <rect x="865.31" y="500.25" width="5.25" height="3.95" style="fill:rgb(10,77,166);fill-opacity:0.7;fill-rule:nonzero;"/>
        <rect x="865.31" y="567.99" width="5.25" height="3.74" style="fill:rgb(10,77,166);fill-opacity:0.7;fill-rule:nonzero;"/>
        <rect x="865.31" y="530.551" width="5.25" height="3.74" style="fill:rgb(10,77,166);fill-opacity:0.7;fill-rule:nonzero;"/>
        <rect x="865.31" y="515.58" width="5.25" height="3.74" style="fill:rgb(10,77,166);fill-opacity:0.7;fill-rule:nonzero;"/>
        <rect x="865.31" y="523.061" width="5.25" height="3.74" style="fill:rgb(10,77,166);fill-opacity:0.7;fill-rule:nonzero;"/>
        <rect x="865.31" y="508.09" width="5.25" height="3.74" style="fill:rgb(10,77,166);fill-opacity:0.7;fill-rule:nonzero;"/>
        <rect x="865.31" y="538.039" width="5.25" height="3.74" style="fill:rgb(10,77,166);fill-opacity:0.7;fill-rule:nonzero;"/>
        <rect x="865.31" y="560.5" width="5.25" height="3.74" style="fill:rgb(10,77,166);fill-opacity:0.7;fill-rule:nonzero;"/>
        <rect x="865.31" y="553.01" width="5.25" height="3.74" style="fill:rgb(10,77,166);fill-opacity:0.7;fill-rule:nonzero;"/>
        <rect x="865.31" y="545.52" width="5.25" height="3.74" style="fill:rgb(10,77,166);fill-opacity:0.7;fill-rule:nonzero;"/>
        <rect x="865.31" y="575.619" width="5.25" height="3.95" style="fill:rgb(10,77,166);fill-opacity:0.7;fill-rule:nonzero;"/>
    </g>
    <rect x="446.48" y="528.881" width="5.25" height="3.95" style="fill:rgb(10,77,166);fill-rule:nonzero;"/>
    <rect x="446.68" y="537.619" width="5.25" height="4.57" style="fill:rgb(10,77,166);fill-rule:nonzero;"/>
    <rect x="446.48" y="546.99" width="5.25" height="3.95" style="fill:rgb(10,77,166);fill-rule:nonzero;"/>
    <g opacity="0.7">
        <rect x="949.09" y="528.881" width="5.25" height="3.95" style="fill:rgb(10,77,166);fill-opacity:0.7;fill-rule:nonzero;"/>
        <rect x="949.04" y="537.621" width="5.25" height="4.57" style="fill:rgb(10,77,166);fill-opacity:0.7;fill-rule:nonzero;"/>
        <rect x="949.09" y="546.99" width="5.25" height="3.95" style="fill:rgb(10,77,166);fill-opacity:0.7;fill-rule:nonzero;"/>
    </g>
    <g opacity="0.7">
        <rect x="1004.9" y="468.01" width="5.25" height="3.95" style="fill:rgb(10,77,166);fill-opacity:0.7;fill-rule:nonzero;"/>
        <rect x="1004.9" y="483.74" width="5.25" height="3.87" style="fill:rgb(10,77,166);fill-opacity:0.7;fill-rule:nonzero;"/>
        <rect x="1004.9" y="476" width="5.25" height="3.87" style="fill:rgb(10,77,166);fill-opacity:0.7;fill-rule:nonzero;"/>
        <rect x="1004.9" y="599.949" width="5.25" height="3.87" style="fill:rgb(10,77,166);fill-opacity:0.7;fill-rule:nonzero;"/>
        <rect x="1004.9" y="491.49" width="5.25" height="3.87" style="fill:rgb(10,77,166);fill-opacity:0.7;fill-rule:nonzero;"/>
        <rect x="1004.9" y="522.48" width="5.25" height="3.87" style="fill:rgb(10,77,166);fill-opacity:0.7;fill-rule:nonzero;"/>
        <rect x="1004.9" y="568.959" width="5.25" height="3.87" style="fill:rgb(10,77,166);fill-opacity:0.7;fill-rule:nonzero;"/>
        <rect x="1004.9" y="545.719" width="5.25" height="3.87" style="fill:rgb(10,77,166);fill-opacity:0.7;fill-rule:nonzero;"/>
        <rect x="1004.9" y="561.209" width="5.25" height="3.87" style="fill:rgb(10,77,166);fill-opacity:0.7;fill-rule:nonzero;"/>
        <rect x="1004.9" y="499.24" width="5.25" height="3.87" style="fill:rgb(10,77,166);fill-opacity:0.7;fill-rule:nonzero;"/>
        <rect x="1004.9" y="584.459" width="5.25" height="3.87" style="fill:rgb(10,77,166);fill-opacity:0.7;fill-rule:nonzero;"/>
        <rect x="1004.9" y="576.709" width="5.25" height="3.87" style="fill:rgb(10,77,166);fill-opacity:0.7;fill-rule:nonzero;"/>
        <rect x="1004.9" y="514.73" width="5.25" height="3.87" style="fill:rgb(10,77,166);fill-opacity:0.7;fill-rule:nonzero;"/>
        <rect x="1004.9" y="537.969" width="5.25" height="3.87" style="fill:rgb(10,77,166);fill-opacity:0.7;fill-rule:nonzero;"/>
        <rect x="1004.9" y="506.99" width="5.25" height="3.87" style="fill:rgb(10,77,166);fill-opacity:0.7;fill-rule:nonzero;"/>
        <rect x="1004.9" y="592.199" width="5.25" height="3.87" style="fill:rgb(10,77,166);fill-opacity:0.7;fill-rule:nonzero;"/>
        <rect x="1004.9" y="530.23" width="5.25" height="3.87" style="fill:rgb(10,77,166);fill-opacity:0.7;fill-rule:nonzero;"/>
        <rect x="1004.9" y="553.469" width="5.25" height="3.87" style="fill:rgb(10,77,166);fill-opacity:0.7;fill-rule:nonzero;"/>
        <rect x="1004.9" y="607.859" width="5.25" height="3.95" style="fill:rgb(10,77,166);fill-opacity:0.7;fill-rule:nonzero;"/>
    </g>
    <g opacity="0.7">
        <rect x="1088.63" y="468.01" width="5.25" height="3.95" style="fill:rgb(10,77,166);fill-opacity:0.7;fill-rule:nonzero;"/>
        <rect x="1088.63" y="506.99" width="5.25" height="3.87" style="fill:rgb(10,77,166);fill-opacity:0.7;fill-rule:nonzero;"/>
        <rect x="1088.63" y="599.949" width="5.25" height="3.87" style="fill:rgb(10,77,166);fill-opacity:0.7;fill-rule:nonzero;"/>
        <rect x="1088.63" y="499.24" width="5.25" height="3.87" style="fill:rgb(10,77,166);fill-opacity:0.7;fill-rule:nonzero;"/>
        <rect x="1088.63" y="514.73" width="5.25" height="3.87" style="fill:rgb(10,77,166);fill-opacity:0.7;fill-rule:nonzero;"/>
        <rect x="1088.63" y="491.49" width="5.25" height="3.87" style="fill:rgb(10,77,166);fill-opacity:0.7;fill-rule:nonzero;"/>
        <rect x="1088.63" y="592.199" width="5.25" height="3.87" style="fill:rgb(10,77,166);fill-opacity:0.7;fill-rule:nonzero;"/>
        <rect x="1088.63" y="476" width="5.25" height="3.87" style="fill:rgb(10,77,166);fill-opacity:0.7;fill-rule:nonzero;"/>
        <rect x="1088.63" y="483.74" width="5.25" height="3.87" style="fill:rgb(10,77,166);fill-opacity:0.7;fill-rule:nonzero;"/>
        <rect x="1088.63" y="545.719" width="5.25" height="3.87" style="fill:rgb(10,77,166);fill-opacity:0.7;fill-rule:nonzero;"/>
        <rect x="1088.63" y="553.469" width="5.25" height="3.87" style="fill:rgb(10,77,166);fill-opacity:0.7;fill-rule:nonzero;"/>
        <rect x="1088.63" y="537.969" width="5.25" height="3.87" style="fill:rgb(10,77,166);fill-opacity:0.7;fill-rule:nonzero;"/>
        <rect x="1088.63" y="522.48" width="5.25" height="3.87" style="fill:rgb(10,77,166);fill-opacity:0.7;fill-rule:nonzero;"/>
        <rect x="1088.63" y="561.209" width="5.25" height="3.87" style="fill:rgb(10,77,166);fill-opacity:0.7;fill-rule:nonzero;"/>
        <rect x="1088.63" y="584.459" width="5.25" height="3.87" style="fill:rgb(10,77,166);fill-opacity:0.7;fill-rule:nonzero;"/>
        <rect x="1088.63" y="576.709" width="5.25" height="3.87" style="fill:rgb(10,77,166);fill-opacity:0.7;fill-rule:nonzero;"/>
        <rect x="1088.63" y="568.959" width="5.25" height="3.87" style="fill:rgb(10,77,166);fill-opacity:0.7;fill-rule:nonzero;"/>
        <rect x="1088.63" y="530.23" width="5.25" height="3.87" style="fill:rgb(10,77,166);fill-opacity:0.7;fill-rule:nonzero;"/>
        <rect x="1088.63" y="607.859" width="5.25" height="3.95" style="fill:rgb(10,77,166);fill-opacity:0.7;fill-rule:nonzero;"/>
    </g>
    <rect x="1032.81" y="437.48" width="5.25" height="3.95" style="fill:rgb(10,77,166);fill-rule:nonzero;"/>
    <rect x="1032.81" y="599.67" width="5.25" height="3.86" style="fill:rgb(10,77,166);fill-rule:nonzero;"/>
    <rect x="1032.81" y="607.381" width="5.25" height="3.86" style="fill:rgb(10,77,166);fill-rule:nonzero;"/>
    <rect x="1032.81" y="591.961" width="5.25" height="3.86" style="fill:rgb(10,77,166);fill-rule:nonzero;"/>
    <rect x="1032.81" y="584.25" width="5.25" height="3.86" style="fill:rgb(10,77,166);fill-rule:nonzero;"/>
    <rect x="1032.81" y="576.539" width="5.25" height="3.86" style="fill:rgb(10,77,166);fill-rule:nonzero;"/>
    <rect x="1032.81" y="460.869" width="5.25" height="3.86" style="fill:rgb(10,77,166);fill-rule:nonzero;"/>
    <rect x="1032.81" y="630.52" width="5.25" height="3.86" style="fill:rgb(10,77,166);fill-rule:nonzero;"/>
    <rect x="1032.81" y="445.449" width="5.25" height="3.86" style="fill:rgb(10,77,166);fill-rule:nonzero;"/>
    <rect x="1032.81" y="622.801" width="5.25" height="3.86" style="fill:rgb(10,77,166);fill-rule:nonzero;"/>
    <rect x="1032.81" y="468.58" width="5.25" height="3.86" style="fill:rgb(10,77,166);fill-rule:nonzero;"/>
    <rect x="1032.81" y="568.83" width="5.25" height="3.86" style="fill:rgb(10,77,166);fill-rule:nonzero;"/>
    <rect x="1032.81" y="453.16" width="5.25" height="3.86" style="fill:rgb(10,77,166);fill-rule:nonzero;"/>
    <rect x="1032.81" y="561.119" width="5.25" height="3.86" style="fill:rgb(10,77,166);fill-rule:nonzero;"/>
    <rect x="1032.81" y="499.43" width="5.25" height="3.86" style="fill:rgb(10,77,166);fill-rule:nonzero;"/>
    <rect x="1032.81" y="507.141" width="5.25" height="3.86" style="fill:rgb(10,77,166);fill-rule:nonzero;"/>
    <rect x="1032.81" y="514.85" width="5.25" height="3.86" style="fill:rgb(10,77,166);fill-rule:nonzero;"/>
    <rect x="1032.81" y="491.721" width="5.25" height="3.86" style="fill:rgb(10,77,166);fill-rule:nonzero;"/>
    <rect x="1032.81" y="522.561" width="5.25" height="3.86" style="fill:rgb(10,77,166);fill-rule:nonzero;"/>
    <rect x="1032.81" y="615.09" width="5.25" height="3.86" style="fill:rgb(10,77,166);fill-rule:nonzero;"/>
    <rect x="1032.81" y="545.689" width="5.25" height="3.86" style="fill:rgb(10,77,166);fill-rule:nonzero;"/>
    <rect x="1032.81" y="530.27" width="5.25" height="3.86" style="fill:rgb(10,77,166);fill-rule:nonzero;"/>
    <rect x="1032.81" y="537.98" width="5.25" height="3.861" style="fill:rgb(10,77,166);fill-rule:nonzero;"/>
    <rect x="1032.81" y="553.4" width="5.25" height="3.86" style="fill:rgb(10,77,166);fill-rule:nonzero;"/>
    <rect x="1032.81" y="484" width="5.25" height="3.86" style="fill:rgb(10,77,166);fill-rule:nonzero;"/>
    <rect x="1032.81" y="476.289" width="5.25" height="3.86" style="fill:rgb(10,77,166);fill-rule:nonzero;"/>
    <rect x="1032.81" y="638.391" width="5.25" height="3.95" style="fill:rgb(10,77,166);fill-rule:nonzero;"/>
    <rect x="977" y="494.211" width="5.25" height="3.95" style="fill:rgb(10,77,166);fill-rule:nonzero;"/>
    <rect x="977" y="565.65" width="5.25" height="3.96" style="fill:rgb(10,77,166);fill-rule:nonzero;"/>
    <rect x="977" y="573.57" width="5.25" height="3.96" style="fill:rgb(10,77,166);fill-rule:nonzero;"/>
    <rect x="977" y="541.891" width="5.25" height="3.96" style="fill:rgb(10,77,166);fill-rule:nonzero;"/>
    <rect x="977" y="557.73" width="5.25" height="3.96" style="fill:rgb(10,77,166);fill-rule:nonzero;"/>
    <rect x="977" y="549.811" width="5.25" height="3.96" style="fill:rgb(10,77,166);fill-rule:nonzero;"/>
    <rect x="977" y="533.971" width="5.25" height="3.96" style="fill:rgb(10,77,166);fill-rule:nonzero;"/>
    <rect x="977" y="510.211" width="5.25" height="3.96" style="fill:rgb(10,77,166);fill-rule:nonzero;"/>
    <rect x="977" y="526.051" width="5.25" height="3.96" style="fill:rgb(10,77,166);fill-rule:nonzero;"/>
    <rect x="977" y="518.131" width="5.25" height="3.96" style="fill:rgb(10,77,166);fill-rule:nonzero;"/>
    <rect x="977" y="502.289" width="5.25" height="3.96" style="fill:rgb(10,77,166);fill-rule:nonzero;"/>
    <rect x="977" y="581.66" width="5.25" height="3.95" style="fill:rgb(10,77,166);fill-rule:nonzero;"/>
    <rect x="1116.54" y="511.619" width="5.25" height="3.95" style="fill:rgb(10,77,166);fill-rule:nonzero;"/>
    <rect x="1116.54" y="526.881" width="5.25" height="3.72" style="fill:rgb(10,77,166);fill-rule:nonzero;"/>
    <rect x="1116.54" y="556.66" width="5.25" height="3.72" style="fill:rgb(10,77,166);fill-rule:nonzero;"/>
    <rect x="1116.54" y="519.439" width="5.25" height="3.72" style="fill:rgb(10,77,166);fill-rule:nonzero;"/>
    <rect x="1116.54" y="549.221" width="5.25" height="3.72" style="fill:rgb(10,77,166);fill-rule:nonzero;"/>
    <rect x="1116.54" y="534.33" width="5.25" height="3.72" style="fill:rgb(10,77,166);fill-rule:nonzero;"/>
    <rect x="1116.54" y="541.77" width="5.25" height="3.72" style="fill:rgb(10,77,166);fill-rule:nonzero;"/>
    <rect x="1116.54" y="564.25" width="5.25" height="3.95" style="fill:rgb(10,77,166);fill-rule:nonzero;"/>
    <rect x="1060.72" y="500.25" width="5.25" height="3.95" style="fill:rgb(10,77,166);fill-rule:nonzero;"/>
    <rect x="1060.72" y="567.99" width="5.25" height="3.74" style="fill:rgb(10,77,166);fill-rule:nonzero;"/>
    <rect x="1060.72" y="530.551" width="5.25" height="3.74" style="fill:rgb(10,77,166);fill-rule:nonzero;"/>
    <rect x="1060.72" y="515.58" width="5.25" height="3.74" style="fill:rgb(10,77,166);fill-rule:nonzero;"/>
    <rect x="1060.72" y="523.061" width="5.25" height="3.74" style="fill:rgb(10,77,166);fill-rule:nonzero;"/>
    <rect x="1060.72" y="508.09" width="5.25" height="3.74" style="fill:rgb(10,77,166);fill-rule:nonzero;"/>
    <rect x="1060.72" y="538.039" width="5.25" height="3.74" style="fill:rgb(10,77,166);fill-rule:nonzero;"/>
    <rect x="1060.72" y="560.5" width="5.25" height="3.74" style="fill:rgb(10,77,166);fill-rule:nonzero;"/>
    <rect x="1060.72" y="553.01" width="5.25" height="3.74" style="fill:rgb(10,77,166);fill-rule:nonzero;"/>
    <rect x="1060.72" y="545.52" width="5.25" height="3.74" style="fill:rgb(10,77,166);fill-rule:nonzero;"/>
    <rect x="1060.72" y="575.619" width="5.25" height="3.95" style="fill:rgb(10,77,166);fill-rule:nonzero;"/>
    <g opacity="0.7">
        <rect x="1144.49" y="528.881" width="5.25" height="3.95" style="fill:rgb(10,77,166);fill-opacity:0.7;fill-rule:nonzero;"/>
        <rect x="1144.45" y="537.621" width="5.25" height="4.57" style="fill:rgb(10,77,166);fill-opacity:0.7;fill-rule:nonzero;"/>
        <rect x="1144.49" y="546.99" width="5.25" height="3.95" style="fill:rgb(10,77,166);fill-opacity:0.7;fill-rule:nonzero;"/>
    </g>
    <path d="M1167.83,541.75L1170.98,541.719L1170.98,537.299L1167.83,537.27L1167.83,541.75Z" style="fill:rgb(10,77,166);fill-rule:nonzero;"/>
    <path d="M1176.58,541.649L1179.72,541.619L1179.72,537.399L1176.58,537.369L1176.58,541.649Z" style="fill:rgb(10,77,166);fill-rule:nonzero;"/>
    <path d="M1185.32,541.551L1188.47,541.521L1188.47,537.501L1185.32,537.471L1185.32,541.551Z" style="fill:rgb(10,77,166);fill-rule:nonzero;"/>
    <path d="M1194.07,541.45L1197.22,541.42L1197.22,537.6L1194.07,537.57L1194.07,541.45Z" style="fill:rgb(10,77,166);fill-rule:nonzero;"/>
    <path d="M1202.82,541.35L1205.97,541.32L1205.97,537.7L1202.82,537.67L1202.82,541.35Z" style="fill:rgb(10,77,166);fill-rule:nonzero;"/>
    <path d="M1211.57,541.25L1214.72,541.219L1214.72,537.799L1211.57,537.77L1211.57,541.25Z" style="fill:rgb(10,77,166);fill-rule:nonzero;"/>
    <path d="M1220.32,541.149L1223.47,541.119L1223.47,537.899L1220.32,537.869L1220.32,541.149Z" style="fill:rgb(10,77,166);fill-rule:nonzero;"/>
    <path d="M1229.07,541.051L1232.22,541.021L1232.22,538.001L1229.07,537.971L1229.07,541.051Z" style="fill:rgb(10,77,166);fill-rule:nonzero;"/>
    <path d="M1237.82,540.95L1240.97,540.92L1240.97,538.1L1237.82,538.07L1237.82,540.95Z" style="fill:rgb(10,77,166);fill-rule:nonzero;"/>
    <path d="M1246.57,540.85L1249.71,540.82L1249.71,538.2L1246.57,538.16L1246.57,540.85Z" style="fill:rgb(10,77,166);fill-rule:nonzero;"/>
    <path d="M1255.31,540.75L1258.46,540.72L1258.46,538.29L1255.31,538.26L1255.31,540.75Z" style="fill:rgb(10,77,166);fill-rule:nonzero;"/>
    <path d="M1264.06,540.649L1267.21,540.619L1267.21,538.389L1264.06,538.369L1264.06,540.649Z" style="fill:rgb(10,77,166);fill-rule:nonzero;"/>
    <path d="M1272.81,540.551L1275.96,540.521L1275.96,538.491L1272.81,538.461L1272.81,540.551Z" style="fill:rgb(10,77,166);fill-rule:nonzero;"/>
    <path d="M1281.56,540.451L1284.71,540.421L1284.71,538.591L1281.56,538.561L1281.56,540.451Z" style="fill:rgb(10,77,166);fill-rule:nonzero;"/>
    <path d="M1290.31,540.35L1293.46,540.32L1293.46,538.69L1290.31,538.66L1290.31,540.35Z" style="fill:rgb(10,77,166);fill-rule:nonzero;"/>
    <path d="M427.79,541.63L424.64,541.6L424.64,537.18L427.79,537.15L427.79,541.63Z" style="fill:rgb(10,77,166);fill-rule:nonzero;"/>
    <path d="M419.04,541.53L415.89,541.5L415.89,537.28L419.04,537.25L419.04,541.53Z" style="fill:rgb(10,77,166);fill-rule:nonzero;"/>
    <path d="M410.29,541.43L407.14,541.4L407.14,537.38L410.29,537.35L410.29,541.43Z" style="fill:rgb(10,77,166);fill-rule:nonzero;"/>
    <path d="M401.55,541.329L398.39,541.299L398.39,537.479L401.55,537.449L401.55,541.329Z" style="fill:rgb(10,77,166);fill-rule:nonzero;"/>
    <path d="M392.8,541.231L389.65,541.201L389.65,537.581L392.8,537.551L392.8,541.231Z" style="fill:rgb(10,77,166);fill-rule:nonzero;"/>
    <path d="M384.05,541.13L380.9,541.1L380.9,537.68L384.05,537.65L384.05,541.13Z" style="fill:rgb(10,77,166);fill-rule:nonzero;"/>
    <path d="M375.3,541.03L372.15,541L372.15,537.78L375.3,537.75L375.3,541.03Z" style="fill:rgb(10,77,166);fill-rule:nonzero;"/>
    <path d="M366.55,540.93L363.4,540.9L363.4,537.88L366.55,537.85L366.55,540.93Z" style="fill:rgb(10,77,166);fill-rule:nonzero;"/>
    <path d="M357.8,540.829L354.65,540.799L354.65,537.979L357.8,537.949L357.8,540.829Z" style="fill:rgb(10,77,166);fill-rule:nonzero;"/>
    <path d="M349.05,540.731L345.9,540.701L345.9,538.081L349.05,538.051L349.05,540.731Z" style="fill:rgb(10,77,166);fill-rule:nonzero;"/>
    <path d="M340.3,540.63L337.15,540.6L337.15,538.18L340.3,538.15L340.3,540.63Z" style="fill:rgb(10,77,166);fill-rule:nonzero;"/>
    <path d="M331.56,540.53L328.41,540.5L328.41,538.28L331.56,538.25L331.56,540.53Z" style="fill:rgb(10,77,166);fill-rule:nonzero;"/>
    <path d="M322.81,540.43L319.66,540.4L319.66,538.38L322.81,538.35L322.81,540.43Z" style="fill:rgb(10,77,166);fill-rule:nonzero;"/>
    <path d="M314.06,540.329L310.91,540.299L310.91,538.479L314.06,538.449L314.06,540.329Z" style="fill:rgb(10,77,166);fill-rule:nonzero;"/>
    <path d="M305.31,540.229L302.16,540.199L302.16,538.579L305.31,538.539L305.31,540.229Z" style="fill:rgb(10,77,166);fill-rule:nonzero;"/>
    <path d="M296.56,540.131L293.41,540.101L293.41,538.671L296.56,538.641L296.56,540.131Z" style="fill:rgb(10,77,166);fill-rule:nonzero;"/>
    <path d="M287.81,540.03L284.66,540L284.66,538.77L287.81,538.74L287.81,540.03Z" style="fill:rgb(10,77,166);fill-rule:nonzero;"/>
    <rect x="965.53" y="321.57" width="52.94" height="20.68" style="fill:none;fill-rule:nonzero;stroke:black;stroke-opacity:0.15;stroke-width:2px;"/>
    <rect x="941.64" y="346.609" width="52.94" height="20.68" style="fill:none;fill-rule:nonzero;stroke:black;stroke-opacity:0.15;stroke-width:2px;"/>
    <rect x="1179.53" y="679.57" width="52.94" height="20.68" style="fill:none;fill-rule:nonzero;stroke:black;stroke-opacity:0.15;stroke-width:2px;"/>
    <rect x="1215.64" y="704.609" width="52.94" height="20.68" style="fill:none;fill-rule:nonzero;stroke:black;stroke-opacity:0.15;stroke-width:2px;"/>
    <rect x="319.53" y="655.57" width="52.94" height="20.68" style="fill:none;fill-rule:nonzero;stroke:black;stroke-opacity:0.15;stroke-width:2px;"/>
    <rect x="486.53" y="358.57" width="52.94" height="20.68" style="fill:none;fill-rule:nonzero;stroke:black;stroke-opacity:0.15;stroke-width:2px;"/>
</svg>
